<?xml version="1.0" encoding="UTF-8" standalone="no"?>
<!-- Created with Inkscape (http://www.inkscape.org/) -->

<svg
   xmlns:dc="http://purl.org/dc/elements/1.1/"
   xmlns:cc="http://creativecommons.org/ns#"
   xmlns:rdf="http://www.w3.org/1999/02/22-rdf-syntax-ns#"
   xmlns:svg="http://www.w3.org/2000/svg"
   xmlns="http://www.w3.org/2000/svg"
   xmlns:sodipodi="http://sodipodi.sourceforge.net/DTD/sodipodi-0.dtd"
   xmlns:inkscape="http://www.inkscape.org/namespaces/inkscape"
   width="23.137728mm"
   height="27.111187mm"
   viewBox="0 0 23.137728 27.111187"
   version="1.1"
   id="svg1108"
   inkscape:version="0.92.3 (2405546, 2018-03-11)"
   sodipodi:docname="oe.svg"
   inkscape:export-filename="/home/mareike/data/work/projects/easecalo-dev/easecalo/web/resource/static/images/oe.png"
   inkscape:export-xdpi="621"
   inkscape:export-ydpi="621">
  <defs
     id="defs1102" />
  <sodipodi:namedview
     id="base"
     pagecolor="#ffffff"
     bordercolor="#666666"
     borderopacity="1.0"
     inkscape:pageopacity="0.0"
     inkscape:pageshadow="2"
     inkscape:zoom="1.979899"
     inkscape:cx="-44.447747"
     inkscape:cy="-19.277572"
     inkscape:document-units="mm"
     inkscape:current-layer="layer1"
     showgrid="false"
     fit-margin-top="0"
     fit-margin-left="0"
     fit-margin-right="0"
     fit-margin-bottom="0"
     inkscape:window-width="1920"
     inkscape:window-height="1175"
     inkscape:window-x="1920"
     inkscape:window-y="0"
     inkscape:window-maximized="1" />
  <metadata
     id="metadata1105">
    <rdf:RDF>
      <cc:Work
         rdf:about="">
        <dc:format>image/svg+xml</dc:format>
        <dc:type
           rdf:resource="http://purl.org/dc/dcmitype/StillImage" />
        <dc:title />
      </cc:Work>
    </rdf:RDF>
  </metadata>
  <g
     inkscape:label="Layer 1"
     inkscape:groupmode="layer"
     id="layer1"
     transform="translate(-73.097805,-43.807501)">
    <g
       id="g32"
       transform="matrix(0.26458333,0,0,0.26458333,45.793599,38.52337)">
      <g
         id="g30">
        <g
           id="g28">
          <g
             id="g26">
            <path
               d="m 189.645,116.088 c 0.008,-0.924 -0.204,0.478 -0.045,-0.606 0.076,0.124 0.128,0.31 0.045,0.606 z"
               id="path2"
               inkscape:connector-curvature="0"
               style="fill:#135079" />
            <path
               d="m 189.563,112.605 c -0.528,-2.788 0.006,-6.462 -0.331,-9.517 -0.022,-0.358 0.289,0.093 0.219,-0.717 -0.409,-2.963 -0.165,-7.627 0.151,-11.233 l 0.083,0.219 c 0.058,-0.687 -0.212,-1.524 -0.176,-2.253 0.057,-0.006 0.078,0.232 0.151,0.063 -0.145,-0.164 -0.1,-1.36 -0.321,-1.649 -0.009,-0.304 0.119,-0.306 0.078,-0.714 l -0.339,-0.344 c -0.445,-0.459 -0.799,-1.047 -1.309,-1.625 -0.501,-0.571 -1.165,-1.115 -1.942,-1.342 0.09,-0.011 0.25,0.023 0.148,-0.066 -0.613,-0.221 -1.283,-0.371 -1.98,-0.444 -0.696,-0.083 -1.418,-0.024 -2.15,-0.013 -1.466,0.029 -2.969,0.064 -4.389,0.096 0.112,-0.064 0.218,-0.188 0.051,-0.262 -0.138,0.197 -1.016,0.246 -1.775,0.285 -0.341,-0.203 -1.302,0.187 -2.195,0.074 l 0.076,-0.047 c -0.66,0.213 -0.979,-0.121 -1.514,0.133 l -0.418,-0.158 c -0.289,0.285 -0.953,-0.146 -1.498,-0.004 l 0.018,0.06 c -0.515,0.067 -0.782,-0.073 -1.257,-0.024 l -0.045,-0.035 c -1.115,0.078 -1.767,-0.082 -1.737,0.139 -0.392,-0.176 1.082,-0.08 0.467,-0.338 -3.671,0.229 -7.455,0.186 -11.149,0.188 -0.419,-0.088 -0.688,-0.115 -0.782,-0.201 -0.366,0.047 -1.39,0.043 -1.725,0.156 0.124,-0.007 -0.238,-0.113 -0.436,-0.126 -0.672,-0.085 -0.733,0.245 -1.471,0.144 0.292,-0.059 0.394,-0.129 0.294,-0.209 -0.631,0.17 -1.472,0.144 -2.216,0.199 0.114,-0.037 0.296,-0.059 0.268,-0.129 -0.813,0.197 -1.485,-0.043 -2.197,0.082 l 0.268,-0.129 c -1.147,-0.156 -0.339,0.27 -1.332,0.178 0.237,-0.043 0.153,-0.092 0.197,-0.144 -0.928,0.231 -2.427,0.155 -3.351,0.233 0.057,-0.019 0.041,-0.055 0.041,-0.055 -1.008,0.03 -2.059,-0.041 -3.167,0.059 -0.403,-0.059 0.133,-0.313 -0.934,-0.264 0.039,0.256 -1.811,0.104 -1.181,0.396 -0.909,-0.041 -2.351,-0.14 -2.957,-0.052 0.408,-0.098 -0.442,-0.314 0.313,-0.336 l -0.571,-0.157 c 0.085,-0.104 0.588,0.036 0.407,-0.095 -0.379,0.011 -1.484,0.111 -1.824,0.07 -0.701,0.158 -1.348,0.451 -2.483,0.483 0.532,-0.101 -0.305,-0.283 0.059,-0.327 l -1.588,0.493 c -0.378,0.012 -0.082,-0.204 -0.628,-0.138 0.026,0.069 -0.211,0.109 -0.378,0.166 -0.143,-0.028 -1.572,0.063 -1.736,-0.188 -0.168,-0.102 0.616,-0.057 0.197,-0.145 -0.699,0.002 -0.729,0.088 -1.428,0.094 l -0.016,-0.034 c -0.462,-0.036 -1.359,0.106 -0.858,0.249 0.32,0.008 -0.122,-0.152 0.354,-0.079 -0.326,0.147 -1.137,0.187 -1.836,0.19 0.24,-0.041 0.211,-0.107 0.305,-0.182 -0.938,0.2 -1.934,0.264 -2.982,0.348 -0.018,0.121 0.391,-0.221 0.545,-0.156 -1.345,-0.166 -2.776,0.238 -3.896,-0.008 0.184,-0.021 0.1,0.172 0.086,0.137 -0.646,-0.016 -0.617,-0.189 -1.04,-0.125 -0.042,-0.102 -0.529,0.031 -0.965,0.064 -0.224,0.071 -0.111,-0.051 0.266,-0.063 -0.604,0.089 -3.025,0.247 -4.425,0.098 0.043,0.072 -0.896,0.235 -1.143,0.254 l 0.104,-0.164 c -0.271,-0.104 -0.955,0.101 -1.024,-0.022 -0.286,0.163 0.286,-0.021 0.857,-0.083 0.569,-0.077 1.214,-0.107 0.735,-0.039 -0.278,-0.146 -1.198,0.289 -1.032,0.064 -0.593,0.07 -1.083,0.375 -1.646,0.422 0.158,-0.027 0.383,-0.358 -0.072,-0.195 -0.765,0.372 -0.204,0.15 -0.776,0.518 -0.008,-0.009 -0.321,0.278 -0.322,0.278 0.054,0.129 -0.595,0.42 -0.25,0.369 -0.187,-0.054 -0.788,0.842 -0.905,0.632 l -0.08,-0.223 c -0.233,0.289 -0.2,0.6 -0.271,0.871 -0.046,0.025 -0.119,0.086 -0.14,0.055 0.242,0.189 -0.426,0.727 -0.271,1.205 -0.156,0.322 -0.202,0.766 -0.228,1.175 -0.014,0.474 -0.037,0.892 -0.134,1.091 0.094,0.639 0.205,1.223 0.139,1.952 -0.028,-0.146 -0.038,-0.346 -0.104,-0.386 -0.092,0.456 -0.009,0.572 0.041,0.988 -0.046,-0.096 -0.182,0.916 -0.29,1.424 0.093,0.639 0.258,0.42 0.36,0.484 -0.305,0.58 0.196,1.793 -0.081,2.521 -0.041,-0.223 -0.148,-0.928 -0.226,-0.398 -0.303,0.582 0.225,1.174 0.078,2.108 l 0.252,-0.229 c -0.157,0.416 0.146,1.379 -0.111,1.285 0.093,0.313 -0.083,1.104 0.164,1 -0.209,1.539 0.126,3.743 -0.315,4.688 0.042,0.221 -0.001,0.771 0.126,0.658 0.136,-0.365 -0.1,-0.512 -0.004,-0.646 0.007,0.198 0.073,0.241 0.107,0.262 -0.057,0.479 -0.073,0.855 -0.278,0.401 -0.152,1.065 0.419,1.099 0.322,2.455 -0.102,-0.062 -0.141,0.04 -0.125,0.438 l 0.176,0.75 c -0.041,0.875 -0.232,0.5 -0.406,0.52 0.03,0.47 0.021,1.044 0.15,1.254 l -0.217,0.568 c 0.157,-0.414 0.104,0.387 0.146,0.605 l -0.043,-0.22 c -0.071,0.087 -0.025,0.626 -0.005,0.901 0.105,-0.064 0.149,-0.617 0.181,-0.92 0.077,0.239 0.058,0.612 0.147,0.928 -0.171,-0.104 -0.12,0.765 -0.139,1.136 -0.037,0.431 0.153,0.483 0.146,0.606 -0.088,0.012 -0.016,0.699 -0.138,0.365 -0.026,-0.146 0.086,-0.332 0.009,-0.572 -0.063,0.277 -0.222,0.254 -0.104,0.826 0.115,0.379 0.313,-0.104 0.28,0.6 -0.078,-0.178 -0.139,-0.204 -0.208,-0.348 -0.023,-0.002 0.003,0.691 0.003,0.691 l 0.155,-0.006 c -0.015,0.098 -0.043,0.041 -0.053,0.085 0.193,0.155 0.37,0.969 0.638,1.005 0.158,0.281 0.273,0.652 0.476,0.914 l -0.05,-0.038 c 0.174,0.38 0.641,0.697 0.964,0.817 l -0.035,0.018 c 0.17,0.141 0.627,0.398 0.911,0.438 0.456,0.316 -0.07,0.631 0.609,0.664 0.574,0.188 0.956,-0.053 0.749,-0.188 0.498,0.166 0.998,0.166 1.602,0.139 0.607,-0.02 1.205,-0.021 1.741,0.096 0.166,-0.061 0.062,-0.1 0.404,-0.135 1.701,0.062 3.591,-0.185 4.944,0.119 -0.494,0.064 -0.033,0.153 -0.023,0.242 0.407,-0.138 0.489,0.145 0.637,-0.093 -0.041,-0.142 0,-0.208 -0.479,-0.267 1.016,-0.074 2.558,-0.074 3.119,0.059 -0.28,-0.064 -0.063,-0.107 0.158,-0.15 -0.073,0.223 0.675,0.258 1.241,0.178 l 0.08,-0.135 0.367,0.141 c 0.218,-0.045 0.241,-0.286 0.802,-0.154 0.029,0.053 0.062,0.105 0.165,0.145 0.586,-0.111 1.411,-0.299 2.046,-0.183 l 0.521,0.196 c 0.271,-0.021 0.729,-0.143 0.251,-0.196 1.083,0.117 1.782,0.134 2.126,0.304 1.867,-0.418 4.577,-0.435 6.749,-0.404 l -0.063,0.102 c 0.583,0.096 0.303,-0.18 0.71,-0.107 -0.189,0.099 0.444,0.211 -0.015,0.33 0.834,0.104 1.074,-0.176 1.617,-0.223 0.083,-0.134 -0.436,0.085 -0.33,-0.085 0.094,-0.046 1.155,0.104 1.283,-0.099 0.21,0.082 0.047,0.229 -0.064,0.311 l 0.511,-0.098 c 0.623,0.236 -1.421,0.422 -0.767,0.713 l 0.471,-0.033 c 0.448,0.215 -1.243,0.241 -0.064,0.313 0.514,-0.098 0.95,-0.394 0.494,-0.48 1.065,-0.057 0.493,-0.48 1.639,-0.463 0.313,0.117 -0.918,0.025 -0.696,0.191 0.539,0.162 1.083,-0.09 1.561,-0.033 -0.533,-0.073 -0.082,-0.277 0.264,-0.316 0.583,0.098 -0.378,0.191 0.445,0.213 0.137,-0.115 0.896,-0.203 0.24,-0.283 0.297,-0.266 0.858,0.07 1.308,-0.133 0.27,0.184 -0.851,0.428 0.057,0.52 -0.144,-0.178 1.119,-0.243 0.64,-0.508 0.355,0.052 0.395,0.19 0.134,0.302 0.51,0.108 1.233,-0.327 1.4,0.028 l 0.174,-0.184 c 0.158,0.059 0.386,0.104 0.646,0.204 0.445,0.004 1.44,-0.249 1.399,0.026 0.145,-0.026 1.165,-0.016 0.771,-0.207 -0.638,-0.117 -0.73,0.14 -1.084,-0.119 0.446,0.213 0.915,-0.025 1.283,-0.098 l 0.06,0.107 c 0.218,-0.042 0.722,-0.02 0.857,-0.134 -0.168,0.062 -0.08,0.134 0.095,0.157 l 0.229,-0.162 c 0.89,-0.08 0.209,0.285 1.072,0.238 l -0.657,0.127 c 0.146,-0.026 0.439,0.125 0.854,0.073 0.16,-0.147 0.462,-0.325 0.599,-0.44 0.487,-0.063 0.218,0.166 0.697,0.015 l -0.627,0.181 c -0.098,0.049 0.423,0.244 1.074,0.238 0.414,-0.051 1.059,-0.266 0.403,-0.348 0.327,-0.002 0.785,0.09 0.523,0.197 0.74,-0.051 -0.096,-0.158 0.543,-0.25 0.26,0.096 1.071,0.239 1.562,0.383 l -0.665,0.25 0.442,0.002 c -0.573,0.197 0.29,0.15 -0.032,0.361 0.303,0.031 0.668,-0.039 0.961,-0.094 -0.885,-0.335 0.991,-0.459 0.733,-0.768 1.211,-0.082 0.758,0.746 2.021,0.267 -0.207,-0.079 0.391,-0.312 -0.373,-0.224 0.753,0.033 0.514,-0.309 1.4,-0.182 -0.659,0.127 0.707,0.313 -0.245,0.493 0.064,-0.101 -0.53,-0.077 -0.676,-0.049 0.312,0.117 -0.063,0.31 0.709,0.31 0.471,-0.029 1.113,-0.035 1.02,-0.195 -0.018,-0.174 -0.718,0.021 -0.416,-0.157 0.938,-0.062 1.096,0.204 1.483,-0.104 -0.594,0.023 -0.741,-0.158 -0.73,-0.277 l 0.689,-0.073 -0.135,0.117 c 1.104,0.083 0.326,-0.212 1.396,-0.181 l 0.501,0.229 c -0.253,0.198 -1.556,-0.09 -1.364,0.233 0.693,0.015 0.926,-0.148 1.581,-0.065 -0.146,0.026 -0.346,0.036 -0.489,0.063 0.249,0.011 0.498,0.438 1.489,0.188 0.513,-0.098 0.135,-0.115 0.147,-0.236 1.114,-0.037 1.449,-0.16 2.168,-0.178 -0.146,0.236 1.271,0.021 0.479,0.264 -0.367,-0.139 -1.981,-0.127 -2.377,0.102 0.406,0.279 -0.876,-0.041 -1.116,0.242 0.896,0.008 0.853,0.283 0.998,0.463 0.247,0.013 0.488,-0.063 0.635,-0.094 0.105,-0.17 -0.218,-0.168 -0.237,-0.34 0.998,0.045 1.962,-0.049 2.512,-0.215 0.335,0.084 0.229,0.254 -0.167,0.27 1.189,-0.051 2.461,-0.025 3.589,0.023 -0.729,-0.275 1.26,-0.063 0.762,-0.295 -0.605,-0.061 -1.125,-0.258 -0.792,-0.382 0.378,0.017 -0.012,0.122 0.146,0.181 0.482,-0.152 0.749,0.242 1.222,0.004 -1.086,0.088 -0.212,0.336 -0.41,0.555 0.783,-0.123 -0.033,0.152 0.74,0.152 0.781,-0.121 1.738,-0.215 2.606,-0.261 1.089,0.206 2.759,0.005 3.732,-0.006 0.509,0.108 0.164,0.354 0.718,0.397 0.647,-0.004 -0.482,-0.266 0.479,-0.151 l -0.094,0.049 c 0.141,-0.034 0.598,0.026 1.013,0.005 0.425,0.002 0.839,-0.121 0.938,-0.306 l -0.235,0.304 c 0.178,0.004 0.326,-0.086 0.455,-0.15 0.024,0.084 0.245,0.113 -0.024,0.236 0.628,0.066 1.19,-0.371 1.739,-0.662 0,0 -0.105,0.014 -0.215,0.025 -0.107,0.004 -0.217,0.008 -0.217,0.008 0.898,-0.547 1.561,-0.869 2.187,-1.686 l 0.1,0.119 c 0,0 0.08,-0.133 0.158,-0.268 0.066,-0.139 0.133,-0.279 0.133,-0.279 0.048,0.217 0.443,-0.229 0.474,-0.586 0,0 -0.025,0.102 -0.067,0.252 -0.035,0.153 -0.098,0.357 -0.182,0.555 -0.07,0.203 -0.163,0.402 -0.243,0.547 -0.076,0.145 -0.128,0.244 -0.128,0.244 -0.381,0.291 0.197,-0.514 -0.115,-0.389 -0.228,0.129 -0.914,0.785 -0.962,0.994 0.298,-0.229 0.307,-0.254 0.477,-0.496 0.245,0.073 -0.193,0.453 -0.347,0.746 0.157,-0.135 0.426,-0.273 0.416,-0.354 -0.243,0.337 -0.56,0.63 -1.162,0.957 0.365,-0.293 -0.282,0.004 -0.157,-0.133 0.049,0.189 -0.521,0.563 -1.354,0.742 -0.32,-0.031 -0.689,0.092 -1.124,0.192 -0.437,0.103 -0.939,0.183 -1.391,0.149 0.369,-0.191 0.871,-0.334 1.426,-0.48 -0.59,-0.037 -0.65,0.063 -1.235,-0.033 -0.281,0.145 -0.482,0.362 -1.242,0.449 l -0.041,-0.143 c -0.689,0.07 -0.689,0.281 -1.564,0.24 -1.502,-0.068 -3.046,-0.068 -4.191,-0.086 l -0.042,-0.14 c -0.638,0.299 -2.125,0.11 -2.981,0.244 -1.46,-0.136 -3.171,0.135 -3.92,-0.106 -2.575,0.106 -4.829,0.211 -7.496,0.161 l 0.449,-0.204 c -0.479,0.149 -0.313,-0.117 -0.78,-0.087 0.538,0.161 -0.649,0.21 -0.982,0.335 -1.188,-0.16 -2.714,0.016 -3.768,0.158 l -0.041,-0.141 c -1.063,0.264 -2.335,0.033 -3.66,-0.012 -0.153,-0.057 -0.394,-0.189 -0.788,-0.175 -0.722,0.228 -1.098,0.214 -2.152,0.354 -0.77,0 -2.021,-0.059 -2.803,-0.146 -2.899,0.32 -5.86,0.118 -8.874,0.311 l -0.217,-0.166 c -2.924,0.354 -6.516,0.033 -9.011,0.213 l 0.241,-0.283 c -0.78,-0.087 -1.782,0.074 -1.583,0.275 -0.784,-0.088 -1.956,0.137 -2.453,-0.097 -0.802,-0.052 -0.98,0.13 -1.646,0.169 -1.604,-0.107 -2.2,-0.082 -3.713,-0.031 l 0.375,0.02 c 0.167,-0.061 0.182,-0.182 -0.196,-0.2 -0.563,0.078 -2.075,-0.073 -1.513,0.263 -1.614,-0.195 -3.766,0.158 -5.336,-0.104 0.135,0.094 -0.264,0.108 -0.431,0.173 -0.719,-0.007 -1.388,-0.02 -2.235,-0.113 -0.799,-0.104 -1.526,-0.316 -2.176,-0.48 -0.223,-0.146 0.439,0.02 -0.169,-0.254 -0.375,-0.131 -0.062,0.119 -0.525,-0.057 -1.25,-0.539 -2.313,-1.563 -2.954,-2.781 -0.325,-0.609 -0.528,-1.266 -0.66,-1.914 -0.116,-0.637 -0.122,-1.36 -0.124,-1.832 -0.176,-3.711 -0.088,-7.582 -0.118,-11.137 l 0.068,0.041 c -0.258,-1.188 0.266,-2.793 -0.124,-3.742 0.063,-0.281 0.03,-1.074 0.16,-0.865 -0.183,-0.948 0.173,-2.654 -0.06,-4.023 -0.007,0.125 0.008,0.198 0.037,0.342 0.148,-1.383 -0.057,-2.604 0.079,-4.063 0.03,0.147 0.052,0.416 0.12,0.461 0.13,-0.562 -0.287,-1.337 0.04,-1.646 -0.002,-0.324 -0.164,-0.23 -0.154,-0.033 0.052,-0.829 -0.01,-1.53 0.107,-2.567 0.136,-0.966 0.494,-1.909 1.034,-2.728 1.074,-1.652 2.854,-2.799 4.763,-3.176 0.697,-0.063 1.052,-0.008 1.23,0.043 0.177,0.049 0.18,0.104 0.165,0.146 -0.031,0.085 -0.101,0.105 0.833,-0.014 0.153,0.062 0.11,-0.127 0.137,-0.061 0.728,-0.091 1.134,0.366 1.639,0.194 -0.209,-0.2 0.336,-0.11 0.351,-0.231 1.458,0.129 1.752,0.309 2.902,0.156 l -0.086,0.105 c 1.349,-0.297 2.911,-0.137 4.051,-0.481 7.439,-0.099 14.573,-0.196 21.826,-0.293 7.17,0.063 14.19,-0.088 21.472,0.093 1.706,0.279 1.833,0.271 3.707,0.158 -0.072,0.044 -0.191,0.057 -0.065,0.098 0.094,-0.227 1.317,-0.021 1.498,-0.238 2.69,0.041 5.173,-0.02 7.939,-0.021 -0.438,0.023 -0.655,0.21 -0.136,0.196 l 0.545,-0.146 0.087,0.063 c 0.356,-0.035 0.746,-0.146 0.378,-0.221 1.744,-0.047 3.462,-0.06 5.209,-0.041 2.093,0.021 4.192,0.867 5.667,2.402 0.738,0.76 1.319,1.691 1.655,2.719 0.353,1.002 0.336,2.229 0.304,2.98 -0.031,1.708 -0.05,3.413 -0.036,5.117 -0.095,1.619 -0.007,3.923 0.038,5.68 -0.303,5.215 -0.547,9.91 -0.334,15.202 -0.012,0.005 -0.6,-0.685 -0.736,-2.872 z"
               id="path4"
               inkscape:connector-curvature="0"
               style="fill:#135079" />
            <path
               d="m 189.433,117.185 c -0.156,0.166 -0.468,0.71 -0.415,0.194 0.13,-0.009 0.341,-0.285 0.415,-0.194 z"
               id="path6"
               inkscape:connector-curvature="0"
               style="fill:#135079" />
            <path
               d="m 174.669,120.459 c -0.021,0.035 -0.229,-0.047 -0.281,-0.063 0.199,-0.008 0.386,-0.104 0.545,-0.044 -0.205,0.008 -0.173,0.061 -0.264,0.107 z"
               id="path8"
               inkscape:connector-curvature="0"
               style="fill:#135079" />
            <path
               d="m 170.53,120.394 c 0.062,-0.103 0.947,-0.183 1.471,-0.194 z"
               id="path10"
               inkscape:connector-curvature="0"
               style="fill:#135079" />
            <path
               d="m 166.676,119.975 c -0.333,-0.085 -0.241,-0.131 0.208,-0.129 0.031,0.055 -0.116,0.08 -0.208,0.129 z"
               id="path12"
               inkscape:connector-curvature="0"
               style="fill:#135079" />
            <path
               d="m 166.401,120.208 c -0.321,0 -0.48,-0.058 -0.635,-0.117 0.012,0.085 0.742,-0.053 0.635,0.117 z"
               id="path14"
               inkscape:connector-curvature="0"
               style="fill:#135079" />
            <path
               d="m 158.031,119.913 c -0.201,0.008 -0.636,0.094 -0.824,-0.021 0.211,0.079 0.979,-0.129 0.824,0.021 z"
               id="path16"
               inkscape:connector-curvature="0"
               style="fill:#135079" />
            <path
               d="m 154.141,120.065 c -0.126,-0.007 -0.177,-0.023 -0.324,0.004 -0.23,-0.047 0.016,-0.121 0.208,-0.129 z"
               id="path18"
               inkscape:connector-curvature="0"
               style="fill:#135079" />
            <polygon
               points="105.127,97.917 105.178,97.556 105.227,97.977 "
               id="polygon20"
               style="fill:#135079" />
            <path
               d="m 123.387,83.663 c 0.42,-0.063 0.292,0.096 0.362,0.107 -0.378,0.014 0.14,-0.125 -0.362,-0.107 z"
               id="path22"
               inkscape:connector-curvature="0"
               style="fill:#135079" />
            <polygon
               points="140.032,82.954 140.117,83.157 139.99,83.161 "
               id="polygon24"
               style="fill:#135079" />
          </g>
        </g>
      </g>
    </g>
    <g
       id="g66"
       transform="matrix(0.26458333,0,0,0.26458333,45.793599,38.52337)">
      <g
         id="g64">
        <g
           id="g62">
          <g
             id="g60">
            <path
               d="m 183.438,73.844 c 0.044,-0.787 -0.226,0.404 -0.021,-0.516 0.071,0.104 0.115,0.266 0.021,0.516 z"
               id="path36"
               inkscape:connector-curvature="0"
               style="fill:#135079" />
            <path
               d="m 183.38,70.911 c -0.527,-2.343 0.006,-5.435 -0.331,-8.001 -0.021,-0.301 0.29,0.078 0.22,-0.603 -0.409,-2.489 -0.165,-6.412 0.15,-9.444 l 0.081,0.184 c 0.038,-0.586 -0.159,-1.263 -0.224,-1.913 0.054,-0.014 0.101,0.2 0.155,0.041 -0.098,-0.075 -0.126,-0.37 -0.21,-0.663 -0.116,-0.286 -0.234,-0.583 -0.337,-0.685 -0.022,-0.266 0.069,-0.285 -0.038,-0.616 l -0.357,-0.216 c -0.209,-0.167 -0.479,-0.293 -0.683,-0.499 -0.202,-0.211 -0.452,-0.391 -0.706,-0.588 -0.242,-0.219 -0.53,-0.386 -0.84,-0.525 -0.153,-0.07 -0.308,-0.15 -0.47,-0.199 -0.168,-0.034 -0.337,-0.061 -0.506,-0.077 0.074,-0.025 0.212,-0.022 0.121,-0.091 -1.091,-0.206 -2.289,-0.054 -3.52,-0.032 -1.232,0.032 -2.494,0.064 -3.688,0.096 0.095,-0.066 0.181,-0.187 0.043,-0.26 -0.118,0.196 -0.854,0.246 -1.494,0.284 -0.288,-0.202 -1.097,0.185 -1.847,0.073 l 0.063,-0.044 c -0.556,0.211 -0.822,-0.122 -1.271,0.131 l -0.353,-0.159 c -0.243,0.285 -0.801,-0.146 -1.26,-0.002 l 0.017,0.058 c -0.435,0.069 -0.657,-0.074 -1.058,-0.025 L 165,47.101 c -0.938,0.075 -1.482,-0.083 -1.461,0.138 -0.328,-0.178 0.908,-0.081 0.394,-0.339 -3.085,0.228 -6.269,0.184 -9.373,0.187 -0.354,-0.089 -0.578,-0.116 -0.657,-0.2 -0.31,0.044 -1.171,0.04 -1.45,0.154 0.104,-0.004 -0.201,-0.114 -0.365,-0.125 -0.565,-0.084 -0.617,0.244 -1.237,0.144 0.248,-0.059 0.331,-0.131 0.248,-0.212 -0.527,0.172 -1.236,0.146 -1.862,0.201 0.097,-0.038 0.248,-0.059 0.224,-0.129 -0.683,0.196 -1.247,-0.042 -1.847,0.082 l 0.224,-0.128 c -0.966,-0.155 -0.285,0.268 -1.12,0.176 0.201,-0.04 0.132,-0.09 0.167,-0.142 -0.779,0.233 -2.038,0.156 -2.815,0.234 0.047,-0.018 0.034,-0.052 0.034,-0.052 -0.848,0.028 -1.73,-0.044 -2.662,0.057 -0.339,-0.057 0.11,-0.313 -0.784,-0.266 0.031,0.257 -1.522,0.106 -0.994,0.396 -0.765,-0.041 -1.977,-0.138 -2.486,-0.052 0.345,-0.098 -0.371,-0.314 0.264,-0.336 l -0.48,-0.156 c 0.07,-0.105 0.494,0.036 0.341,-0.096 -0.318,0.011 -1.247,0.112 -1.531,0.071 -0.591,0.158 -1.135,0.452 -2.09,0.484 0.449,-0.101 -0.255,-0.284 0.052,-0.329 l -1.334,0.494 c -0.319,0.011 -0.07,-0.204 -0.529,-0.137 0.023,0.069 -0.176,0.111 -0.317,0.166 -0.118,-0.028 -1.321,0.063 -1.461,-0.188 -0.138,-0.1 0.521,-0.054 0.167,-0.144 -0.588,0.003 -0.612,0.089 -1.201,0.094 l -0.012,-0.034 c -0.388,-0.039 -1.143,0.107 -0.722,0.248 0.271,0.008 -0.101,-0.153 0.297,-0.079 -0.272,0.146 -0.956,0.188 -1.543,0.191 0.201,-0.04 0.175,-0.108 0.257,-0.18 -0.79,0.199 -1.627,0.262 -2.51,0.346 -0.013,0.12 0.33,-0.219 0.458,-0.155 -1.13,-0.167 -2.332,0.236 -3.274,-0.007 0.153,-0.021 0.084,0.17 0.073,0.137 -0.544,-0.016 -0.521,-0.19 -0.874,-0.125 -0.035,-0.103 -0.444,0.032 -0.812,0.063 -0.188,0.076 -0.095,-0.05 0.224,-0.061 -0.509,0.087 -2.545,0.245 -3.719,0.096 0.033,0.074 -0.748,0.235 -0.969,0.255 l 0.088,-0.167 c -0.222,-0.073 -0.794,0.083 -0.854,-0.049 -0.242,0.115 0.243,0.039 0.715,-0.051 0.487,-0.083 1.023,-0.109 0.623,-0.042 -0.235,-0.154 -1.013,0.302 -0.867,0.077 -0.503,0.014 -0.893,0.332 -1.378,0.302 0.137,-0.007 0.322,-0.309 -0.064,-0.196 -0.639,0.299 -0.159,0.15 -0.647,0.429 -0.005,-0.005 -0.285,0.206 -0.272,0.222 0.063,0.144 -0.499,0.329 -0.2,0.328 -0.06,-0.021 -0.273,0.105 -0.417,0.271 -0.146,0.16 -0.293,0.295 -0.367,0.184 l -0.081,-0.206 c -0.211,0.226 -0.182,0.49 -0.21,0.733 -0.033,0.021 -0.106,0.062 -0.127,0.032 0.117,0.103 0.025,0.234 -0.098,0.395 -0.082,0.175 -0.18,0.395 -0.124,0.576 -0.167,0.244 -0.142,0.605 -0.217,0.928 -0.015,0.399 -0.037,0.75 -0.135,0.917 0.095,0.538 0.206,1.028 0.14,1.642 -0.029,-0.124 -0.038,-0.29 -0.105,-0.324 -0.091,0.385 -0.008,0.479 0.041,0.832 -0.046,-0.078 -0.18,0.771 -0.289,1.2 0.093,0.533 0.257,0.35 0.36,0.405 -0.304,0.489 0.197,1.509 -0.081,2.121 -0.041,-0.185 -0.149,-0.78 -0.225,-0.336 -0.305,0.489 0.224,0.986 0.077,1.772 l 0.252,-0.193 c -0.155,0.353 0.146,1.162 -0.11,1.08 0.091,0.264 -0.083,0.93 0.163,0.842 -0.208,1.294 0.126,3.146 -0.316,3.943 0.041,0.188 0,0.648 0.126,0.554 0.137,-0.309 -0.098,-0.432 -0.004,-0.545 0.007,0.167 0.075,0.203 0.109,0.22 -0.058,0.403 -0.075,0.718 -0.279,0.337 -0.153,0.896 0.418,0.924 0.323,2.063 -0.103,-0.05 -0.142,0.037 -0.125,0.368 l 0.175,0.633 c -0.041,0.735 -0.232,0.417 -0.404,0.437 0.028,0.395 0.021,0.873 0.151,1.055 l -0.218,0.479 c 0.155,-0.352 0.104,0.323 0.146,0.51 l -0.043,-0.187 c -0.072,0.073 -0.027,0.526 -0.005,0.759 0.105,-0.056 0.149,-0.521 0.18,-0.771 0.076,0.201 0.059,0.513 0.147,0.779 -0.17,-0.089 -0.12,0.641 -0.138,0.955 -0.035,0.363 0.187,0.342 0.182,0.438 -0.085,0.013 0.038,0.466 -0.108,0.259 -0.039,-0.099 0.061,-0.233 -0.04,-0.394 -0.041,0.192 -0.191,0.194 -0.038,0.594 0.151,0.279 0.291,-0.146 0.373,0.408 -0.089,-0.125 -0.164,-0.129 -0.264,-0.226 l 0.106,0.556 0.146,-0.041 c -0.013,0.084 -0.04,0.043 -0.047,0.084 0.244,0.057 0.464,0.709 0.725,0.658 0.215,0.166 0.291,0.52 0.526,0.668 l -0.05,-0.02 c 0.214,0.261 0.613,0.49 0.926,0.482 l -0.028,0.024 c 0.158,0.089 0.557,0.259 0.812,0.202 0.411,0.225 0.008,0.619 0.573,0.541 0.505,0.037 0.784,-0.215 0.601,-0.331 0.378,0.112 0.972,0.034 1.459,0.026 0.512,-0.02 1.014,-0.022 1.464,0.097 0.141,-0.062 0.052,-0.101 0.34,-0.138 1.431,0.061 3.02,-0.185 4.156,0.119 -0.414,0.064 -0.027,0.154 -0.019,0.246 0.342,-0.142 0.409,0.141 0.533,-0.096 -0.034,-0.139 0,-0.208 -0.402,-0.266 0.852,-0.075 2.147,-0.075 2.622,0.058 -0.237,-0.065 -0.055,-0.108 0.134,-0.149 -0.063,0.222 0.565,0.256 1.043,0.18 l 0.067,-0.139 0.309,0.141 c 0.182,-0.045 0.202,-0.285 0.673,-0.154 0.024,0.055 0.052,0.105 0.138,0.145 0.492,-0.108 1.187,-0.297 1.721,-0.185 l 0.438,0.198 c 0.229,-0.02 0.611,-0.141 0.211,-0.198 0.911,0.119 1.498,0.136 1.789,0.306 1.568,-0.416 3.848,-0.436 5.673,-0.403 l -0.054,0.101 c 0.489,0.096 0.253,-0.176 0.597,-0.105 -0.157,0.097 0.374,0.209 -0.011,0.328 0.7,0.107 0.903,-0.176 1.359,-0.223 0.068,-0.134 -0.366,0.086 -0.278,-0.082 0.077,-0.05 0.969,0.104 1.08,-0.098 0.174,0.076 0.039,0.227 -0.057,0.311 l 0.429,-0.101 c 0.523,0.237 -1.194,0.421 -0.646,0.712 l 0.396,-0.029 c 0.376,0.209 -1.045,0.237 -0.054,0.309 0.431,-0.1 0.798,-0.391 0.415,-0.48 0.896,-0.057 0.414,-0.48 1.377,-0.463 0.264,0.119 -0.771,0.025 -0.586,0.193 0.454,0.162 0.91,-0.09 1.313,-0.034 -0.448,-0.075 -0.069,-0.278 0.221,-0.315 0.489,0.094 -0.318,0.19 0.374,0.211 0.115,-0.117 0.752,-0.203 0.202,-0.285 0.251,-0.262 0.723,0.074 1.101,-0.131 0.225,0.187 -0.716,0.43 0.047,0.521 -0.121,-0.179 0.941,-0.242 0.538,-0.509 0.3,0.053 0.329,0.193 0.111,0.303 0.429,0.109 1.036,-0.327 1.177,0.027 l 0.146,-0.182 c 0.134,0.059 0.324,0.104 0.542,0.202 0.376,0.002 1.212,-0.249 1.177,0.028 0.121,-0.028 0.98,-0.016 0.646,-0.208 -0.532,-0.115 -0.612,0.139 -0.907,-0.119 0.375,0.212 0.769,-0.026 1.077,-0.097 l 0.051,0.105 c 0.184,-0.041 0.607,-0.018 0.721,-0.134 -0.141,0.062 -0.066,0.134 0.077,0.16 l 0.194,-0.162 c 0.747,-0.083 0.174,0.284 0.902,0.239 l -0.553,0.125 c 0.121,-0.026 0.368,0.125 0.715,0.074 0.137,-0.149 0.39,-0.328 0.505,-0.442 0.41,-0.063 0.184,0.168 0.588,0.014 l -0.527,0.179 c -0.08,0.051 0.356,0.248 0.902,0.244 0.35,-0.053 0.894,-0.267 0.341,-0.348 0.272,-0.002 0.657,0.087 0.44,0.195 0.62,-0.051 -0.082,-0.16 0.453,-0.252 0.222,0.1 0.904,0.24 1.316,0.383 l -0.562,0.248 0.373,0.004 c -0.482,0.197 0.244,0.152 -0.027,0.361 0.254,0.033 0.563,-0.039 0.808,-0.095 -0.744,-0.334 0.833,-0.456 0.617,-0.765 1.019,-0.083 0.637,0.746 1.698,0.266 -0.173,-0.078 0.328,-0.313 -0.313,-0.226 0.634,0.034 0.433,-0.306 1.177,-0.177 -0.554,0.125 0.596,0.309 -0.206,0.49 0.056,-0.102 -0.443,-0.076 -0.568,-0.047 0.262,0.114 -0.053,0.305 0.596,0.305 0.396,-0.027 0.938,-0.033 0.859,-0.193 -0.018,-0.174 -0.604,0.021 -0.353,-0.159 0.791,-0.06 0.921,0.206 1.247,-0.103 -0.498,0.022 -0.622,-0.156 -0.613,-0.277 l 0.58,-0.073 -0.111,0.115 c 0.927,0.085 0.272,-0.21 1.174,-0.179 l 0.422,0.229 c -0.214,0.198 -1.308,-0.087 -1.149,0.236 0.585,0.012 0.779,-0.151 1.331,-0.069 -0.125,0.029 -0.291,0.037 -0.41,0.064 0.209,0.013 0.417,0.439 1.251,0.189 0.431,-0.099 0.112,-0.115 0.124,-0.234 0.938,-0.039 1.219,-0.162 1.823,-0.182 -0.124,0.236 1.068,0.022 0.401,0.264 -0.307,-0.135 -1.665,-0.123 -1.997,0.101 0.342,0.278 -0.737,-0.038 -0.94,0.245 0.754,0.007 0.719,0.281 0.839,0.462 0.211,0.015 0.41,-0.063 0.536,-0.093 0.089,-0.172 -0.186,-0.168 -0.2,-0.344 0.84,0.049 1.648,-0.047 2.111,-0.211 0.28,0.084 0.191,0.252 -0.141,0.27 0.999,-0.053 2.067,-0.025 3.018,0.023 -0.613,-0.277 1.06,-0.064 0.641,-0.295 -0.51,-0.063 -0.946,-0.261 -0.666,-0.384 0.317,0.019 -0.012,0.121 0.123,0.179 0.403,-0.149 0.629,0.244 1.024,0.006 -0.911,0.09 -0.178,0.336 -0.346,0.556 0.659,-0.124 -0.027,0.153 0.624,0.153 0.656,-0.121 1.463,-0.215 2.191,-0.264 0.914,0.209 2.319,0.004 3.138,-0.002 0.428,0.107 0.139,0.354 0.604,0.396 0.544,-0.008 -0.404,-0.266 0.402,-0.154 l -0.078,0.051 c 0.118,-0.037 0.501,0.028 0.854,0.002 0.352,-0.023 0.705,-0.088 0.785,-0.271 l -0.196,0.282 c 0.146,0.008 0.276,-0.045 0.383,-0.114 0.021,0.085 0.206,0.118 -0.02,0.233 0.519,0.047 1.017,-0.263 1.47,-0.529 h -0.368 c 0.378,-0.244 0.719,-0.371 1.011,-0.592 0.15,-0.103 0.313,-0.189 0.462,-0.305 0.134,-0.133 0.27,-0.273 0.405,-0.437 l 0.097,0.12 c 0,0 0.072,-0.105 0.146,-0.215 0.066,-0.109 0.103,-0.238 0.105,-0.236 0.054,0.199 0.396,-0.166 0.437,-0.461 0,0 -0.105,0.343 -0.212,0.686 -0.045,0.188 -0.153,0.331 -0.218,0.457 -0.066,0.123 -0.112,0.206 -0.112,0.206 -0.342,0.224 0.169,-0.442 -0.118,-0.366 -0.121,0.028 -0.308,0.194 -0.472,0.377 -0.192,0.148 -0.356,0.324 -0.369,0.424 0.27,-0.17 0.265,-0.205 0.426,-0.393 0.229,0.104 -0.176,0.379 -0.3,0.643 0.136,-0.106 0.381,-0.201 0.37,-0.275 -0.109,0.141 -0.233,0.266 -0.393,0.398 -0.149,0.144 -0.351,0.265 -0.62,0.379 0.317,-0.237 -0.25,-0.027 -0.142,-0.146 0.043,0.18 -0.434,0.521 -1.155,0.616 -0.136,-0.021 -0.282,0.002 -0.438,0.039 -0.161,0.017 -0.331,0.054 -0.518,0.097 -0.373,0.098 -0.788,0.191 -1.166,0.151 0.312,-0.183 0.729,-0.345 1.198,-0.478 -0.497,-0.059 -0.547,0.068 -1.039,-0.037 -0.237,0.146 -0.407,0.362 -1.044,0.448 l -0.035,-0.141 c -0.579,0.071 -0.579,0.278 -1.315,0.241 -1.263,-0.069 -2.562,-0.069 -3.524,-0.088 l -0.035,-0.141 c -0.536,0.301 -1.785,0.109 -2.508,0.245 -1.227,-0.136 -2.666,0.134 -3.293,-0.106 -2.167,0.106 -4.059,0.213 -6.303,0.16 l 0.377,-0.205 c -0.403,0.151 -0.262,-0.117 -0.656,-0.086 0.452,0.164 -0.547,0.213 -0.824,0.338 -0.999,-0.16 -2.283,0.014 -3.167,0.156 l -0.033,-0.14 c -0.896,0.264 -1.966,0.03 -3.079,-0.013 -0.13,-0.057 -0.33,-0.189 -0.663,-0.174 -0.604,0.227 -0.922,0.211 -1.81,0.354 -0.646,0 -1.698,-0.058 -2.355,-0.146 -2.438,0.318 -4.929,0.114 -7.46,0.307 l -0.184,-0.163 c -2.456,0.353 -5.477,0.032 -7.572,0.213 l 0.202,-0.283 c -0.656,-0.087 -1.499,0.073 -1.331,0.274 -0.659,-0.088 -1.644,0.136 -2.063,-0.098 -0.674,-0.053 -0.824,0.131 -1.384,0.17 -1.35,-0.106 -1.851,-0.082 -3.121,-0.029 l 0.314,0.018 c 0.141,-0.061 0.151,-0.181 -0.165,-0.199 -0.474,0.078 -1.745,-0.076 -1.271,0.262 -1.357,-0.196 -3.166,0.158 -4.487,-0.104 0.112,0.093 -0.22,0.108 -0.361,0.173 -0.596,0.002 -1.206,-0.046 -1.786,-0.072 -0.271,-0.002 -0.63,-0.049 -0.94,-0.067 -0.316,-0.032 -0.622,-0.013 -0.902,-0.063 -0.208,-0.1 0.375,-0.063 -0.172,-0.215 -0.334,-0.055 -0.037,0.115 -0.457,0.057 -2.313,-0.479 -4.102,-2.789 -4.256,-4.996 -0.098,-0.529 -0.087,-0.877 -0.106,-1.278 l -0.034,-1.183 c -0.008,-0.791 -0.018,-1.584 -0.024,-2.371 0,-1.578 -0.003,-3.139 -0.004,-4.632 l 0.067,0.033 c -0.257,-1.001 0.265,-2.348 -0.124,-3.146 0.064,-0.237 0.029,-0.904 0.161,-0.728 -0.184,-0.796 0.173,-2.231 -0.06,-3.383 -0.008,0.106 0.007,0.167 0.037,0.289 0.148,-1.163 -0.057,-2.19 0.08,-3.417 0.029,0.125 0.05,0.35 0.118,0.388 0.13,-0.475 -0.287,-1.125 0.041,-1.385 -0.002,-0.272 -0.163,-0.195 -0.154,-0.027 0.051,-0.703 -0.014,-1.269 0.125,-2.194 0.106,-0.852 0.482,-1.649 0.954,-2.36 0.985,-1.411 2.568,-2.29 4.196,-2.588 1.195,-0.014 1.212,0.135 1.188,0.217 -0.021,0.083 -0.096,0.111 0.695,-0.011 0.129,0.063 0.093,-0.125 0.115,-0.059 0.611,-0.09 0.952,0.365 1.378,0.193 -0.175,-0.2 0.284,-0.112 0.295,-0.234 1.226,0.131 1.472,0.31 2.438,0.158 l -0.072,0.105 c 1.135,-0.298 2.447,-0.139 3.406,-0.481 6.255,-0.063 12.25,-0.253 18.349,-0.293 6.029,0.065 11.932,-0.089 18.053,0.093 1.435,0.277 1.541,0.271 3.116,0.158 -0.063,0.043 -0.163,0.055 -0.06,0.097 0.08,-0.228 1.11,-0.021 1.262,-0.239 2.263,0.042 4.349,-0.02 6.677,-0.021 -0.368,0.024 -0.554,0.211 -0.116,0.195 l 0.458,-0.146 0.074,0.063 c 0.3,-0.034 0.627,-0.145 0.315,-0.219 1.463,-0.049 2.919,-0.057 4.372,-0.043 l 0.544,0.006 c 0.175,0 0.363,0.005 0.603,0.031 0.444,0.058 0.896,0.05 1.329,0.187 0.874,0.212 1.72,0.561 2.465,1.092 1.491,1.014 2.62,2.791 2.64,4.724 -0.005,1.507 -0.042,2.889 -0.022,4.337 -0.095,1.361 -0.007,3.297 0.04,4.775 -0.304,4.384 -0.548,8.331 -0.335,12.784 -0.008,0.002 -0.597,-0.578 -0.732,-2.416 z"
               id="path38"
               inkscape:connector-curvature="0"
               style="fill:#135079" />
            <path
               d="m 183.248,74.779 c -0.168,0.132 -0.405,0.597 -0.398,0.142 0.113,-0.004 0.321,-0.227 0.398,-0.142 z"
               id="path40"
               inkscape:connector-curvature="0"
               style="fill:#135079" />
            <path
               d="m 170.657,77.215 c -0.019,0.033 -0.193,-0.045 -0.237,-0.064 0.168,-0.011 0.326,-0.105 0.457,-0.048 -0.169,0.013 -0.143,0.065 -0.22,0.112 z"
               id="path42"
               inkscape:connector-curvature="0"
               style="fill:#135079" />
            <path
               d="m 167.178,77.149 c 0.053,-0.104 0.796,-0.184 1.233,-0.195 z"
               id="path44"
               inkscape:connector-curvature="0"
               style="fill:#135079" />
            <path
               d="m 163.936,76.732 c -0.28,-0.087 -0.202,-0.134 0.176,-0.132 0.026,0.055 -0.099,0.081 -0.176,0.132 z"
               id="path46"
               inkscape:connector-curvature="0"
               style="fill:#135079" />
            <path
               d="m 163.707,76.959 c -0.27,0.002 -0.401,-0.06 -0.536,-0.115 0.012,0.088 0.626,-0.052 0.536,0.115 z"
               id="path48"
               inkscape:connector-curvature="0"
               style="fill:#135079" />
            <path
               d="m 156.671,76.667 c -0.169,0.01 -0.534,0.092 -0.692,-0.02 0.175,0.077 0.822,-0.129 0.692,0.02 z"
               id="path50"
               inkscape:connector-curvature="0"
               style="fill:#135079" />
            <path
               d="m 153.401,76.819 c -0.106,-0.007 -0.149,-0.023 -0.273,0.004 -0.192,-0.047 0.014,-0.121 0.176,-0.132 z"
               id="path52"
               inkscape:connector-curvature="0"
               style="fill:#135079" />
            <polygon
               points="111.344,59.364 111.393,59.063 111.443,59.416 "
               id="polygon54"
               style="fill:#135079" />
            <path
               d="m 126.74,47.676 c 0.354,-0.064 0.248,0.095 0.304,0.11 -0.319,0.01 0.118,-0.125 -0.304,-0.11 z"
               id="path56"
               inkscape:connector-curvature="0"
               style="fill:#135079" />
            <polygon
               points="140.735,46.966 140.805,47.171 140.698,47.173 "
               id="polygon58"
               style="fill:#135079" />
          </g>
        </g>
      </g>
    </g>
    <g
       id="g100"
       transform="matrix(0.26458333,0,0,0.26458333,45.793599,38.52337)">
      <g
         id="g98">
        <g
           id="g96">
          <g
             id="g94">
            <path
               d="m 180.828,39.502 c 0.048,-0.727 -0.2,0.359 -0.023,-0.48 0.067,0.094 0.139,0.256 0.023,0.48 z"
               id="path70"
               inkscape:connector-curvature="0"
               style="fill:#135079" />
            <path
               d="m 180.766,36.962 c -0.529,-1.998 0.007,-4.63 -0.332,-6.819 -0.021,-0.256 0.29,0.067 0.22,-0.512 -0.205,-1.061 -0.246,-2.426 -0.197,-3.851 -0.009,-0.707 0.193,-1.448 -0.109,-2.149 -0.294,-0.685 -0.846,-1.215 -1.405,-1.606 l 0.187,0.01 c -0.439,-0.328 -1.134,-0.31 -1.632,-0.478 0.008,-0.054 0.188,-0.025 0.085,-0.132 -0.173,0.11 -0.977,-0.14 -1.219,-0.025 -0.203,-0.082 -0.171,-0.215 -0.446,-0.303 l -0.315,0.177 c -0.837,0.435 -2.019,-0.035 -3.151,0.193 0.055,-0.042 0.166,-0.077 0.076,-0.119 -1.818,0.27 -4.094,0.218 -6.126,0.32 0.082,-0.067 0.156,-0.188 0.037,-0.261 -0.101,0.195 -0.729,0.247 -1.272,0.285 -0.245,-0.203 -0.934,0.184 -1.573,0.072 l 0.056,-0.044 c -0.475,0.211 -0.701,-0.122 -1.084,0.132 l -0.299,-0.159 c -0.208,0.285 -0.685,-0.147 -1.073,-0.003 l 0.013,0.058 c -0.366,0.069 -0.559,-0.074 -0.9,-0.026 l -0.031,-0.033 c -0.8,0.074 -1.267,-0.083 -1.246,0.138 -0.281,-0.178 0.773,-0.081 0.335,-0.339 -2.631,0.228 -5.342,0.184 -7.987,0.188 -0.302,-0.09 -0.493,-0.117 -0.561,-0.201 -0.265,0.045 -0.996,0.041 -1.236,0.154 0.088,-0.005 -0.171,-0.114 -0.311,-0.125 -0.481,-0.084 -0.525,0.244 -1.056,0.144 0.211,-0.059 0.281,-0.131 0.212,-0.212 -0.451,0.173 -1.055,0.146 -1.588,0.202 0.081,-0.038 0.213,-0.059 0.192,-0.129 -0.584,0.195 -1.065,-0.042 -1.576,0.082 l 0.191,-0.128 c -0.822,-0.155 -0.242,0.269 -0.955,0.176 0.172,-0.04 0.11,-0.091 0.143,-0.143 -0.664,0.233 -1.736,0.157 -2.398,0.235 0.039,-0.018 0.026,-0.053 0.026,-0.053 -0.72,0.028 -1.474,-0.043 -2.267,0.058 -0.29,-0.058 0.095,-0.313 -0.67,-0.267 0.028,0.257 -1.295,0.107 -0.847,0.396 -0.65,-0.041 -1.683,-0.139 -2.116,-0.052 0.292,-0.098 -0.319,-0.314 0.224,-0.336 l -0.41,-0.156 c 0.061,-0.105 0.421,0.036 0.292,-0.096 -0.272,0.01 -1.063,0.111 -1.306,0.07 -0.503,0.158 -0.965,0.452 -1.78,0.484 0.383,-0.101 -0.217,-0.284 0.042,-0.328 l -1.136,0.494 c -0.271,0.012 -0.058,-0.204 -0.45,-0.136 0.021,0.068 -0.149,0.11 -0.27,0.166 -0.103,-0.029 -1.127,0.063 -1.246,-0.189 -0.12,-0.1 0.441,-0.053 0.141,-0.144 -0.501,0.003 -0.521,0.089 -1.021,0.094 l -0.012,-0.034 c -0.329,-0.039 -0.975,0.108 -0.614,0.248 0.23,0.009 -0.088,-0.152 0.253,-0.078 -0.232,0.147 -0.813,0.188 -1.315,0.191 0.17,-0.041 0.15,-0.108 0.219,-0.18 -0.674,0.199 -1.387,0.262 -2.138,0.346 -0.012,0.12 0.279,-0.22 0.391,-0.155 -0.963,-0.167 -1.988,0.236 -2.791,-0.008 0.132,-0.021 0.07,0.171 0.063,0.137 -0.463,-0.016 -0.443,-0.189 -0.745,-0.125 -0.03,-0.102 -0.38,0.032 -0.692,0.063 -0.16,0.076 -0.081,-0.05 0.191,-0.061 -0.434,0.086 -2.171,0.244 -3.171,0.095 0.02,0.067 -0.616,0.25 -0.845,0.241 l 0.09,-0.158 c -0.229,-0.099 -0.716,0.028 -0.766,-0.102 -0.214,0.113 0.201,0.035 0.635,-0.012 0.452,-0.046 0.882,-0.098 0.55,-0.024 -0.178,-0.135 -0.918,0.255 -0.772,0.041 -0.435,0.007 -0.812,0.236 -1.229,0.155 0.118,0.007 0.309,-0.271 -0.036,-0.206 -0.589,0.166 -0.16,0.099 -0.616,0.282 0,0 -0.271,0.148 -0.268,0.154 0.031,0.149 -0.491,0.168 -0.229,0.247 -0.127,-0.096 -0.688,0.426 -0.76,0.192 l -0.038,-0.213 c -0.211,0.153 -0.229,0.405 -0.304,0.588 -0.036,0.004 -0.11,0.012 -0.123,-0.02 0.188,0.24 -0.42,0.372 -0.302,0.708 -0.134,0.147 -0.201,0.356 -0.216,0.57 -0.015,0.34 -0.037,0.64 -0.134,0.78 0.094,0.458 0.206,0.877 0.138,1.4 -0.027,-0.105 -0.036,-0.248 -0.104,-0.276 -0.091,0.328 -0.009,0.409 0.04,0.708 -0.045,-0.066 -0.18,0.657 -0.288,1.022 0.092,0.456 0.257,0.299 0.36,0.344 -0.305,0.417 0.196,1.287 -0.08,1.809 -0.042,-0.158 -0.15,-0.665 -0.227,-0.287 -0.303,0.417 0.225,0.841 0.078,1.512 l 0.252,-0.165 c -0.156,0.299 0.146,0.988 -0.11,0.919 0.091,0.225 -0.083,0.792 0.162,0.716 -0.208,1.103 0.125,2.682 -0.314,3.36 0.041,0.158 -0.001,0.552 0.125,0.471 0.137,-0.262 -0.097,-0.367 -0.004,-0.464 0.007,0.142 0.075,0.173 0.108,0.188 -0.058,0.343 -0.074,0.613 -0.278,0.288 -0.153,0.763 0.418,0.787 0.322,1.757 -0.102,-0.044 -0.141,0.029 -0.125,0.313 -0.005,0.015 0.21,0.301 0.22,0.289 0.087,0.352 -0.131,0.305 -0.289,0.378 0.144,0.22 0.351,0.495 0.54,0.484 -0.014,0 0.101,0.392 0.111,0.392 -0.101,-0.283 0.249,0.073 0.396,0.104 l -0.139,-0.041 c -0.001,0.096 0.321,0.242 0.488,0.301 0.013,-0.117 -0.271,-0.317 -0.396,-0.451 0.157,0.022 0.342,0.15 0.552,0.161 -0.138,0.125 0.375,0.312 0.596,0.4 0.249,0.121 0.337,-0.057 0.409,-0.027 -0.02,0.095 0.427,0.115 0.19,0.19 -0.1,0.009 -0.187,-0.132 -0.354,-0.103 0.152,0.113 0.097,0.264 0.496,0.236 0.296,-0.022 -0.008,-0.335 0.499,-0.144 -0.144,0.02 -0.18,0.083 -0.301,0.126 0,0 0.124,0.041 0.248,0.083 0.123,0.045 0.25,0.076 0.25,0.075 l 0.038,-0.152 c 0.065,0.045 0.017,0.055 0.046,0.078 0.173,-0.137 0.766,-0.007 0.917,-0.194 0.282,-0.016 0.594,0.106 0.864,0.124 l -0.053,0.014 c 0.33,0.091 0.77,0.032 1.046,-0.073 l -0.016,0.033 c 0.179,0.014 0.605,-0.012 0.83,-0.102 0.456,0.117 0.153,0.583 0.656,0.388 0.462,-0.005 0.724,-0.283 0.538,-0.382 0.83,0.105 1.771,-0.148 2.541,0.093 0.119,-0.062 0.043,-0.102 0.29,-0.138 1.217,0.061 2.571,-0.183 3.542,0.12 -0.354,0.064 -0.024,0.155 -0.018,0.242 0.292,-0.138 0.351,0.144 0.455,-0.094 -0.029,-0.139 0,-0.208 -0.343,-0.264 0.727,-0.075 1.831,-0.075 2.235,0.056 -0.202,-0.065 -0.047,-0.108 0.112,-0.149 -0.054,0.221 0.482,0.255 0.889,0.177 l 0.059,-0.136 0.264,0.139 c 0.155,-0.043 0.172,-0.283 0.574,-0.153 0.021,0.053 0.045,0.105 0.118,0.144 0.42,-0.11 1.011,-0.298 1.466,-0.184 l 0.372,0.198 c 0.194,-0.021 0.521,-0.14 0.179,-0.198 0.776,0.12 1.277,0.134 1.523,0.306 1.337,-0.418 3.278,-0.434 4.834,-0.404 l -0.046,0.102 c 0.417,0.095 0.216,-0.177 0.508,-0.107 -0.135,0.097 0.318,0.211 -0.01,0.329 0.597,0.107 0.77,-0.176 1.159,-0.222 0.058,-0.132 -0.313,0.085 -0.237,-0.084 0.065,-0.047 0.827,0.104 0.919,-0.097 0.15,0.079 0.032,0.228 -0.049,0.309 l 0.367,-0.097 c 0.445,0.235 -1.02,0.422 -0.551,0.711 l 0.338,-0.031 c 0.321,0.211 -0.892,0.238 -0.048,0.311 0.368,-0.099 0.683,-0.393 0.354,-0.482 0.763,-0.055 0.354,-0.48 1.175,-0.463 0.226,0.118 -0.657,0.028 -0.498,0.194 0.386,0.163 0.774,-0.09 1.118,-0.034 -0.381,-0.076 -0.059,-0.28 0.188,-0.317 0.419,0.095 -0.271,0.191 0.32,0.212 0.099,-0.117 0.642,-0.203 0.171,-0.285 0.215,-0.263 0.617,0.073 0.938,-0.131 0.192,0.185 -0.608,0.428 0.04,0.522 -0.104,-0.179 0.802,-0.244 0.46,-0.509 0.253,0.052 0.281,0.192 0.095,0.302 0.365,0.11 0.884,-0.326 1.002,0.029 l 0.126,-0.184 c 0.114,0.059 0.277,0.104 0.463,0.203 0.319,0.003 1.032,-0.247 1.003,0.029 0.103,-0.029 0.834,-0.017 0.554,-0.208 -0.455,-0.116 -0.521,0.14 -0.776,-0.119 0.321,0.212 0.656,-0.026 0.918,-0.097 l 0.045,0.107 c 0.154,-0.042 0.515,-0.019 0.613,-0.134 -0.119,0.061 -0.06,0.134 0.066,0.16 l 0.163,-0.163 c 0.638,-0.081 0.15,0.286 0.771,0.239 l -0.47,0.127 c 0.102,-0.027 0.313,0.124 0.608,0.073 0.115,-0.148 0.331,-0.326 0.432,-0.442 0.348,-0.064 0.155,0.167 0.498,0.016 l -0.448,0.178 c -0.068,0.049 0.303,0.246 0.769,0.242 0.298,-0.052 0.762,-0.267 0.29,-0.347 0.233,-0.002 0.563,0.088 0.375,0.196 0.529,-0.052 -0.068,-0.16 0.389,-0.251 0.188,0.099 0.77,0.24 1.12,0.384 l -0.478,0.249 0.317,0.002 c -0.411,0.199 0.208,0.152 -0.022,0.361 0.215,0.034 0.478,-0.039 0.687,-0.094 -0.634,-0.334 0.713,-0.459 0.527,-0.765 0.866,-0.083 0.54,0.745 1.445,0.267 -0.147,-0.079 0.278,-0.313 -0.268,-0.225 0.54,0.034 0.365,-0.308 1.003,-0.18 -0.474,0.125 0.506,0.31 -0.175,0.493 0.045,-0.102 -0.381,-0.077 -0.483,-0.048 0.222,0.117 -0.046,0.308 0.507,0.308 0.337,-0.029 0.799,-0.035 0.731,-0.195 -0.016,-0.174 -0.516,0.02 -0.299,-0.158 0.672,-0.061 0.783,0.205 1.063,-0.105 -0.425,0.024 -0.53,-0.156 -0.523,-0.276 l 0.494,-0.073 -0.097,0.116 c 0.791,0.084 0.232,-0.211 1,-0.18 l 0.36,0.229 c -0.184,0.198 -1.114,-0.087 -0.979,0.235 0.499,0.012 0.664,-0.151 1.133,-0.068 -0.104,0.028 -0.246,0.036 -0.349,0.064 0.178,0.01 0.356,0.438 1.064,0.188 0.366,-0.098 0.099,-0.116 0.106,-0.236 0.8,-0.037 1.039,-0.16 1.554,-0.179 -0.104,0.236 0.911,0.022 0.343,0.265 -0.264,-0.138 -1.419,-0.125 -1.702,0.1 0.29,0.279 -0.63,-0.039 -0.801,0.245 0.643,0.006 0.61,0.28 0.713,0.461 0.18,0.013 0.352,-0.064 0.457,-0.092 0.076,-0.17 -0.155,-0.167 -0.171,-0.341 0.715,0.046 1.405,-0.049 1.8,-0.213 0.238,0.084 0.163,0.253 -0.12,0.27 0.853,-0.05 1.764,-0.027 2.571,0.024 -0.521,-0.276 0.901,-0.064 0.544,-0.295 -0.433,-0.062 -0.805,-0.259 -0.565,-0.384 0.271,0.019 -0.009,0.121 0.104,0.18 0.344,-0.151 0.535,0.243 0.873,0.004 -0.775,0.09 -0.149,0.337 -0.293,0.555 0.561,-0.122 -0.024,0.154 0.53,0.154 0.56,-0.119 1.246,-0.215 1.868,-0.262 0.779,0.205 1.977,0.004 2.674,-0.005 0.366,0.11 0.117,0.355 0.514,0.397 0.465,-0.004 -0.344,-0.264 0.345,-0.153 l -0.066,0.05 c 0.209,-0.055 1.27,0.167 1.429,-0.209 l -0.186,0.276 c 0.127,0.023 0.238,-0.053 0.337,-0.088 0.011,0.085 0.167,0.149 -0.034,0.225 0.443,0.155 0.882,-0.145 1.313,-0.26 l -0.318,-0.085 c 0.7,-0.295 1.238,-0.323 1.829,-0.757 l 0.064,0.141 c 0,0 0.312,-0.321 0.301,-0.328 0.006,0.19 0.398,-0.001 0.468,-0.267 0,0 -0.123,0.278 -0.31,0.537 -0.181,0.26 -0.404,0.5 -0.404,0.5 -0.34,0.092 0.225,-0.348 -0.04,-0.368 -0.213,-0.01 -0.799,0.327 -0.862,0.493 0.259,-0.083 0.255,-0.13 0.42,-0.263 0.176,0.15 -0.199,0.329 -0.35,0.531 0.137,-0.054 0.354,-0.09 0.355,-0.164 -0.22,0.218 -0.498,0.35 -0.969,0.486 0.295,-0.173 -0.208,-0.077 -0.104,-0.172 0.018,0.192 -0.433,0.371 -1.039,0.398 -0.438,-0.159 -1.129,0.209 -1.786,0.144 0.271,-0.194 0.61,-0.335 1.02,-0.428 -0.419,-0.081 -0.465,0.009 -0.883,-0.083 -0.203,0.143 -0.346,0.36 -0.894,0.446 l -0.026,-0.14 c -0.494,0.071 -0.494,0.28 -1.12,0.241 -1.076,-0.069 -2.182,-0.069 -3.003,-0.087 l -0.03,-0.141 c -0.458,0.301 -1.521,0.112 -2.138,0.244 -1.046,-0.134 -2.271,0.135 -2.81,-0.107 -1.844,0.107 -3.457,0.214 -5.368,0.162 l 0.32,-0.205 c -0.344,0.149 -0.222,-0.117 -0.559,-0.087 0.385,0.164 -0.467,0.212 -0.704,0.337 -0.854,-0.159 -1.945,0.014 -2.697,0.158 l -0.03,-0.141 c -0.762,0.264 -1.674,0.033 -2.622,-0.01 -0.109,-0.059 -0.282,-0.19 -0.564,-0.175 -0.517,0.228 -0.785,0.212 -1.54,0.353 -0.554,0 -1.449,-0.057 -2.011,-0.146 -2.077,0.32 -4.198,0.116 -6.356,0.309 l -0.156,-0.166 c -2.093,0.354 -4.667,0.033 -6.452,0.213 l 0.173,-0.282 c -0.56,-0.087 -1.276,0.074 -1.135,0.274 -0.562,-0.086 -1.401,0.137 -1.759,-0.095 -0.572,-0.053 -0.703,0.13 -1.179,0.168 -1.149,-0.107 -1.576,-0.083 -2.659,-0.031 l 0.27,0.019 c 0.119,-0.063 0.129,-0.182 -0.141,-0.202 -0.403,0.079 -1.485,-0.075 -1.084,0.262 -1.155,-0.195 -2.697,0.158 -3.822,-0.104 0.096,0.092 -0.188,0.109 -0.309,0.171 -1.015,0.003 -2.082,-0.184 -2.892,-0.027 -0.162,-0.046 0.256,-0.157 -0.156,-0.167 -0.245,0.035 -0.006,0.121 -0.307,0.172 -0.823,0.086 -1.655,0.042 -2.469,-0.018 -0.838,-0.05 -1.792,-0.2 -2.604,-0.404 -0.75,-0.155 -1.507,-0.434 -2.215,-0.909 -0.688,-0.474 -1.407,-1.2 -1.649,-2.267 -0.066,-0.236 -0.073,-0.58 -0.081,-0.753 l 0.001,-0.501 c 0,-0.333 10e-4,-0.665 0.002,-0.995 -0.002,-0.659 -0.004,-1.31 -0.006,-1.947 l 0.067,0.029 c -0.257,-0.853 0.266,-2.001 -0.125,-2.682 0.064,-0.201 0.03,-0.77 0.161,-0.619 -0.183,-0.68 0.173,-1.901 -0.06,-2.883 -0.006,0.091 0.007,0.142 0.037,0.246 0.149,-0.991 -0.057,-1.866 0.08,-2.912 0.029,0.106 0.05,0.298 0.118,0.331 0.13,-0.404 -0.287,-0.958 0.041,-1.18 -0.003,-0.231 -0.164,-0.165 -0.155,-0.023 0.011,-0.287 0.021,-0.575 0.034,-0.866 0.007,-0.167 -0.004,-0.243 0.016,-0.486 0.01,-0.222 0.045,-0.437 0.106,-0.647 0.233,-0.852 0.79,-1.477 1.358,-1.95 1.175,-0.924 2.541,-1.349 3.895,-1.489 0.993,0.056 0.937,0.219 0.941,0.294 -0.021,0.083 -0.083,0.11 0.591,-0.011 0.109,0.063 0.08,-0.125 0.099,-0.058 0.521,-0.09 0.812,0.365 1.174,0.193 -0.148,-0.201 0.241,-0.112 0.252,-0.234 1.044,0.13 1.252,0.311 2.078,0.158 l -0.062,0.105 c 0.967,-0.297 2.086,-0.139 2.9,-0.481 5.332,-0.062 10.439,-0.253 15.637,-0.292 5.138,0.065 10.166,-0.089 15.384,0.093 1.221,0.277 1.312,0.27 2.655,0.157 -0.057,0.044 -0.14,0.055 -0.051,0.097 0.067,-0.228 0.945,-0.021 1.073,-0.239 1.93,0.043 3.705,-0.02 5.69,-0.021 -0.314,0.024 -0.473,0.21 -0.1,0.195 l 0.392,-0.146 0.063,0.063 c 0.256,-0.033 0.534,-0.145 0.271,-0.218 2.492,-0.098 4.966,-0.034 7.424,0.05 l 0.922,0.031 0.46,0.016 0.532,0.031 c 0.713,0.06 1.423,0.195 2.118,0.423 0.693,0.23 1.378,0.548 2.021,1.023 0.625,0.484 1.265,1.147 1.549,2.119 0.059,0.231 0.091,0.479 0.095,0.742 0.011,0.268 -0.007,0.354 -0.006,0.546 0.002,0.337 0.006,0.692 0.008,1.049 0.024,0.714 0.051,1.442 0.071,2.072 -0.304,3.734 -0.549,7.099 -0.335,10.891 -0.003,0.009 -0.589,-0.486 -0.727,-2.052 z"
               id="path72"
               inkscape:connector-curvature="0"
               style="fill:#135079" />
            <path
               d="m 180.517,40.32 c -0.168,0.09 -0.516,0.388 -0.405,0.017 0.117,0.038 0.344,-0.112 0.405,-0.017 z"
               id="path74"
               inkscape:connector-curvature="0"
               style="fill:#135079" />
            <path
               d="m 169.196,41.339 c -0.017,0.034 -0.166,-0.046 -0.203,-0.065 0.146,-0.008 0.278,-0.104 0.392,-0.044 -0.146,0.007 -0.124,0.061 -0.189,0.109 z"
               id="path76"
               inkscape:connector-curvature="0"
               style="fill:#135079" />
            <path
               d="m 166.232,41.271 c 0.045,-0.102 0.679,-0.181 1.053,-0.193 z"
               id="path78"
               inkscape:connector-curvature="0"
               style="fill:#135079" />
            <path
               d="m 163.469,40.854 c -0.239,-0.085 -0.175,-0.132 0.147,-0.129 0.025,0.053 -0.08,0.08 -0.147,0.129 z"
               id="path80"
               inkscape:connector-curvature="0"
               style="fill:#135079" />
            <path
               d="m 163.273,41.084 c -0.229,0.002 -0.343,-0.058 -0.455,-0.115 0.009,0.086 0.531,-0.054 0.455,0.115 z"
               id="path82"
               inkscape:connector-curvature="0"
               style="fill:#135079" />
            <path
               d="m 157.277,40.79 c -0.145,0.009 -0.456,0.093 -0.591,-0.02 0.152,0.078 0.703,-0.129 0.591,0.02 z"
               id="path84"
               inkscape:connector-curvature="0"
               style="fill:#135079" />
            <path
               d="m 154.491,40.942 c -0.09,-0.007 -0.127,-0.025 -0.231,0.002 -0.164,-0.046 0.01,-0.12 0.148,-0.13 z"
               id="path86"
               inkscape:connector-curvature="0"
               style="fill:#135079" />
            <polygon
               points="113.956,31.234 114.008,30.978 114.055,31.278 "
               id="polygon88"
               style="fill:#135079" />
            <path
               d="m 127.662,22.268 c 0.3,-0.064 0.21,0.096 0.259,0.11 -0.271,0.01 0.101,-0.126 -0.259,-0.11 z"
               id="path90"
               inkscape:connector-curvature="0"
               style="fill:#135079" />
            <polygon
               points="139.587,21.558 139.648,21.762 139.556,21.765 "
               id="polygon92"
               style="fill:#135079" />
          </g>
        </g>
      </g>
    </g>
    <ellipse
       cx="90.470871"
       cy="46.94294"
       rx="1.2996334"
       ry="1.2909021"
       id="ellipse104"
       style="fill:#135079;stroke-width:0.26458332" />
    <g
       id="g136"
       transform="matrix(0.26458333,0,0,0.26458333,45.793599,38.52337)">
      <g
         id="g134">
        <g
           id="g132">
          <g
             id="g130">
            <path
               d="m 173.514,31.753 c 0.041,0.107 0.111,-0.059 0.06,0.07 -0.056,-0.015 -0.098,-0.034 -0.06,-0.07 z"
               id="path106"
               inkscape:connector-curvature="0"
               style="fill:#ffffff" />
            <path
               d="m 173.561,32.182 c 0.156,0.188 0.137,0.404 0.097,0.613 -0.078,0.203 -0.175,0.395 -0.129,0.623 0,0.05 -0.178,-0.075 -0.166,0.038 0.09,0.235 -0.016,0.47 -0.171,0.682 -0.154,0.214 -0.354,0.405 -0.597,0.502 l -0.026,-0.054 c -0.084,0.04 -0.01,0.233 -0.09,0.29 -0.028,-0.023 -0.021,-0.057 -0.071,-0.072 0.067,0.088 -0.067,0.159 -0.033,0.244 -0.053,-0.001 -0.113,-0.063 -0.176,-0.061 l 0.055,0.127 c 0.106,0.319 -0.286,0.214 -0.337,0.46 -0.012,-0.028 -0.01,-0.058 -0.04,-0.07 -0.125,0.37 -0.516,0.546 -0.818,0.775 -0.008,-0.046 -0.029,-0.125 -0.07,-0.159 0.043,0.125 -0.045,0.211 -0.125,0.282 -0.089,-0.094 -0.117,0.172 -0.26,0.142 l -0.001,-0.032 c -0.038,0.159 -0.15,-0.038 -0.165,0.145 l -0.086,-0.084 c 0.017,0.192 -0.15,-0.056 -0.192,0.058 l 0.013,0.037 c -0.055,0.065 -0.111,-0.017 -0.166,0.034 l -0.011,-0.02 c -0.131,0.101 -0.24,-0.009 -0.209,0.139 -0.073,-0.112 0.134,-0.068 0.019,-0.228 -0.446,0.189 -0.966,0.26 -1.448,0.17 -0.052,-0.063 -0.083,-0.085 -0.09,-0.142 -0.053,0.025 -0.182,0.009 -0.24,0.079 0.019,-0.001 -0.019,-0.077 -0.041,-0.087 -0.076,-0.065 -0.128,0.158 -0.209,0.061 0.046,-0.027 0.066,-0.07 0.064,-0.127 -0.102,0.088 -0.203,0.039 -0.308,0.045 0.021,-0.02 0.049,-0.026 0.058,-0.073 -0.138,0.094 -0.178,-0.083 -0.29,-0.032 l 0.061,-0.071 c -0.11,-0.141 -0.099,0.156 -0.204,0.059 0.038,-0.017 0.039,-0.051 0.056,-0.081 -0.169,0.111 -0.344,0.008 -0.469,-0.015 0.011,-0.008 0.02,-0.029 0.02,-0.029 -0.127,-0.046 -0.228,-0.155 -0.39,-0.167 -0.028,-0.059 0.116,-0.174 -0.021,-0.212 -0.082,0.15 -0.247,-0.053 -0.276,0.151 -0.103,-0.071 -0.202,-0.265 -0.303,-0.265 0.08,-0.018 0.079,-0.203 0.165,-0.153 l 0.006,-0.129 c 0.051,-0.049 0.043,0.066 0.078,-0.021 -0.039,-0.024 -0.19,-0.059 -0.205,-0.108 -0.136,0.024 -0.33,0.118 -0.466,0.035 0.1,-0.004 0.098,-0.163 0.154,-0.153 10e-4,0 -0.387,0.099 -0.382,0.088 -0.039,-0.034 0.09,-0.103 0.01,-0.128 -0.029,0.034 -0.071,0.028 -0.112,0.036 0.002,-0.028 -0.173,-0.14 -0.059,-0.265 0.037,-0.06 0.079,0.04 0.09,-0.042 -0.062,-0.07 -0.107,-0.037 -0.171,-0.107 l 0.018,-0.016 c -0.02,-0.063 -0.173,-0.097 -0.203,0.011 0.022,0.038 0.068,-0.074 0.071,0.005 -0.106,0.025 -0.201,-0.046 -0.266,-0.122 0.044,0.011 0.077,-0.019 0.126,-0.035 -0.194,-0.02 -0.28,-0.133 -0.406,-0.232 -0.068,0.039 0.151,-0.026 0.127,0.015 0.007,-0.218 -0.328,-0.27 -0.26,-0.482 0.026,0.017 -0.094,0.061 -0.074,0.05 -0.035,-0.086 0.071,-0.13 0.006,-0.165 0.062,-0.033 -0.061,-0.053 -0.094,-0.107 -0.057,-0.012 0.024,-0.028 0.048,0.02 -0.079,-0.056 -0.283,-0.355 -0.247,-0.575 -0.043,0.016 -0.197,-0.074 -0.206,-0.121 l 0.107,-0.008 c 0.049,-0.056 -0.056,-0.146 0.031,-0.172 -0.151,-0.063 0.214,0.33 0.081,0.228 0.075,-0.053 -0.217,-0.134 -0.069,-0.141 -0.028,-0.085 -0.18,-0.146 -0.085,-0.255 -0.014,0.029 0.15,0.045 0.137,-0.025 -0.032,-0.123 -0.055,-0.027 -0.099,-0.125 l -0.051,-0.059 c -0.102,0.011 0.001,-0.118 -0.106,-0.055 0.082,-0.027 -0.071,-0.187 0.099,-0.19 l 0.137,0.003 c -0.018,-0.053 -0.15,-0.076 -0.215,-0.116 0.014,-0.008 0.037,-0.025 0.06,-0.024 -0.204,0.004 0.004,-0.135 -0.16,-0.195 0.049,-0.122 -0.013,-0.307 0.131,-0.359 -0.054,-0.091 -0.119,-0.181 -0.065,-0.283 0.02,0.022 0.021,0.051 0.065,0.06 0.065,-0.06 0.015,-0.08 -0.014,-0.144 0.028,0.016 0.133,-0.118 0.211,-0.177 -0.053,-0.096 -0.164,-0.083 -0.23,-0.102 0.215,-0.048 -0.114,-0.285 0.104,-0.347 0.018,0.036 0.063,0.146 0.132,0.085 0.22,-0.033 -0.098,-0.189 0.035,-0.294 l -0.172,-0.012 c 0.118,-0.029 -0.033,-0.218 0.126,-0.156 -0.045,-0.061 0.101,-0.134 -0.06,-0.171 0.189,-0.167 0.089,-0.557 0.437,-0.544 -0.01,-0.039 0.054,-0.095 -0.03,-0.119 -0.105,0.006 0.024,0.093 -0.041,0.083 0.01,-0.026 -0.028,-0.052 -0.047,-0.064 0.066,-0.044 0.103,-0.086 0.192,0.032 0.161,-0.082 -0.173,-0.265 -0.021,-0.409 0.057,0.042 0.084,0.043 0.102,-0.013 l -0.045,-0.156 c 0.084,-0.097 0.163,0.021 0.262,0.08 0.014,-0.069 0.061,-0.133 0.013,-0.203 l 0.168,0.022 c -0.12,-0.017 -0.021,-0.081 -0.024,-0.122 l 0.004,0.041 c 0.045,0.019 0.07,-0.057 0.083,-0.095 -0.063,-0.037 -0.136,0.005 -0.179,0.027 -0.021,-0.057 0.022,-0.091 0.006,-0.163 0.08,0.081 0.134,-0.035 0.177,-0.068 0.06,-0.032 -0.033,-0.117 -0.021,-0.13 0.047,0.037 0.071,-0.071 0.104,0.02 0,0.028 -0.074,0 -0.058,0.059 0.059,-0.002 0.133,0.067 0.129,-0.044 -0.002,-0.085 -0.176,-0.135 -0.045,-0.181 0,0.043 0.029,0.078 0.043,0.123 l 0.115,-0.045 -0.072,-0.074 c 0.029,0.007 0.028,0.021 0.043,0.024 -0.057,-0.099 0.085,-0.154 0.018,-0.258 0.038,-0.044 0.142,-0.026 0.19,-0.052 l -0.001,0.014 c 0.093,0.002 0.133,-0.083 0.13,-0.171 l 0.013,0.02 c 0.033,-0.017 0.089,-0.083 0.087,-0.159 0.12,10e-4 0.266,0.283 0.261,0.12 0.066,-0.059 -0.002,-0.241 -0.067,-0.27 0.162,-0.058 0.229,-0.305 0.456,-0.236 0,-0.047 -0.026,-0.062 0.007,-0.106 0.235,-0.083 0.413,-0.362 0.671,-0.269 -0.047,0.074 0.037,0.096 0.062,0.149 0.015,-0.111 0.1,0.065 0.059,-0.089 -0.04,-0.083 -0.053,-0.13 -0.132,-0.139 0.12,-0.095 0.34,-0.163 0.446,-0.105 -0.055,-0.029 -0.032,-0.064 -0.011,-0.101 0.036,0.143 0.146,0.133 0.208,0.06 l -0.013,-0.091 0.076,0.074 c 0.023,-0.037 -0.015,-0.192 0.087,-0.133 0.015,0.032 0.025,0.066 0.046,0.086 0.064,-0.09 0.155,-0.266 0.266,-0.192 l 0.1,0.121 c 0.035,-0.019 0.091,-0.103 0.015,-0.134 0.173,0.061 0.273,0.061 0.336,0.169 0.236,-0.303 0.657,-0.372 0.979,-0.293 l -0.014,0.066 c 0.08,0.071 0.053,-0.114 0.108,-0.061 -0.032,0.061 0.054,0.145 -0.02,0.217 0.111,0.082 0.167,-0.101 0.251,-0.123 0.021,-0.087 -0.07,0.05 -0.043,-0.061 0.02,-0.029 0.162,0.086 0.2,-0.044 0.024,0.056 -0.016,0.151 -0.039,0.203 l 0.085,-0.057 c 0.063,0.164 -0.246,0.256 -0.18,0.457 l 0.066,-0.016 c 0.036,0.144 -0.188,0.141 -0.04,0.204 0.074,-0.059 0.171,-0.244 0.116,-0.309 0.152,-0.018 0.128,-0.314 0.29,-0.27 0.027,0.083 -0.137,-0.009 -0.124,0.109 0.056,0.107 0.162,-0.021 0.22,0.031 -0.063,-0.071 0.031,-0.185 0.087,-0.193 0.067,0.085 -0.084,0.107 0.03,0.155 0.036,-0.07 0.161,-0.093 0.08,-0.173 0.089,-0.157 0.111,0.084 0.215,-0.025 10e-4,0.129 -0.201,0.236 -0.092,0.334 0.013,-0.121 0.205,-0.105 0.19,-0.295 0.042,0.049 0.018,0.139 -0.043,0.197 0.048,0.091 0.248,-0.149 0.189,0.079 l 0.066,-0.106 c 0.01,0.044 0.032,0.082 0.044,0.155 0.063,0.018 0.267,-0.081 0.186,0.09 0.024,-0.007 0.156,0.071 0.157,-0.072 -0.055,-0.116 -0.135,0.034 -0.112,-0.149 0.004,0.16 0.13,0.048 0.2,0.032 l -0.021,0.069 c 0.041,-0.01 0.104,0.04 0.154,-0.019 -0.04,0.025 -0.05,0.075 -0.034,0.102 l 0.079,-0.08 c 0.146,0.018 -0.057,0.184 0.071,0.218 l -0.125,0.028 c 0.023,-0.006 0.017,0.104 0.087,0.103 0.065,-0.076 0.166,-0.156 0.223,-0.213 0.087,-10e-4 -0.024,0.113 0.09,0.06 l -0.145,0.057 c -0.028,0.021 -0.024,0.171 0.059,0.214 0.071,0 0.233,-0.073 0.175,-0.168 0.046,0.023 0.073,0.108 0,0.149 0.115,0.024 0.044,-0.096 0.162,-0.1 10e-4,0.072 0.041,0.231 0.042,0.353 l -0.172,0.074 0.044,0.038 c -0.141,0.057 -0.026,0.107 -0.144,0.192 0.02,0.044 0.086,0.037 0.14,0.034 0.034,-0.258 0.294,-0.154 0.394,-0.335 0.179,0.075 -0.229,0.453 0.119,0.327 0.013,-0.06 0.184,-0.119 0.056,-0.148 0.072,0.088 0.194,-0.104 0.245,0.047 -0.135,-10e-4 -0.061,0.218 -0.25,0.218 0.053,-0.043 -0.025,-0.088 -0.056,-0.087 -0.018,0.087 -0.143,0.148 -0.059,0.218 0.063,0.027 0.138,0.083 0.2,-10e-4 0.079,-0.086 -0.088,-0.059 0.024,-0.116 0.139,0.059 0.026,0.2 0.209,0.1 -0.064,-0.059 -0.003,-0.155 0.057,-0.21 0.004,-0.004 0.106,0.042 0.106,0.042 l -0.068,0.039 c 0.069,0.167 0.134,-0.06 0.227,0.081 l -0.063,0.162 c -0.122,0.059 -0.109,-0.221 -0.246,-0.051 0.058,0.083 0.162,0.037 0.183,0.149 -0.026,-0.005 -0.05,-0.024 -0.078,-0.027 0.021,0.034 -0.172,0.249 0.045,0.25 0.1,0.016 0.072,-0.034 0.137,-0.084 0.125,0.113 0.222,0.102 0.302,0.179 -0.142,0.077 0.107,0.157 -0.098,0.159 0.041,-0.095 -0.122,-0.279 -0.273,-0.228 -0.106,0.164 -0.062,-0.116 -0.228,-0.02 0.077,0.101 -0.064,0.213 -0.146,0.304 0.015,0.031 0.074,0.023 0.102,0.027 0.099,-0.059 0.068,-0.092 0.156,-0.167 0.065,0.126 0.201,0.192 0.342,0.191 -0.016,0.069 -0.117,0.121 -0.161,0.085 0.138,0.106 0.189,0.287 0.244,0.437 0.108,-0.183 0.122,0.135 0.224,-0.001 -0.007,-0.096 0.069,-0.23 0.166,-0.228 0.019,0.057 -0.071,0.039 -0.095,0.079 0.122,0.015 -0.089,0.174 0.085,0.161 -0.13,-0.113 -0.211,0.079 -0.354,0.121 0.124,0.058 -0.093,0.044 -0.041,0.137 0.121,0.056 0.242,0.146 0.329,0.241 -0.075,0.194 0.114,0.367 0.164,0.498 -0.05,0.09 -0.22,0.093 -0.224,0.172 0.028,0.082 0.148,-0.112 0.116,0.034 l -0.036,-0.003 c 0.049,0.029 -0.037,0.252 0.203,0.237 h -0.184 c -0.01,0.027 0.036,0.039 0.062,0.054 -0.056,0.014 -0.1,0.051 -0.146,0.022 -0.088,0.097 0.043,0.155 0.062,0.239 l 0.096,-0.073 c 0.099,0.135 0.006,0.25 0.059,0.388 l -0.104,0.005 0.07,0.079 c -0.103,-0.012 -0.157,0.068 -0.07,0.106 l -0.271,-0.189 c 0.056,-0.064 0.13,0.05 0.226,0.003 0.084,-0.04 0.044,-0.168 -0.056,-0.175 -0.007,0.049 0.017,0.049 0.057,0.083 -0.139,0.033 -0.141,-0.04 -0.238,-0.063 0.009,0.025 -0.031,0.065 0.014,0.064 -0.072,-0.039 -0.089,-0.085 -0.1,-0.165 0.062,0.045 0.085,-0.043 0.127,-0.03 -0.126,0.015 -0.168,-0.055 -0.146,-0.158 0.119,-0.099 -0.146,-0.155 -0.142,-0.271 0.136,0.009 0.252,0.042 0.324,0.1 0.039,-0.087 -0.028,-0.079 0.012,-0.168 -0.103,-0.01 -0.25,0.005 -0.332,-0.067 l 0.088,-0.032 c -0.07,-0.068 -0.203,-0.024 -0.21,-0.133 0.002,-0.194 -0.074,-0.368 -0.142,-0.49 l 0.082,-0.046 c -0.218,0.02 -0.19,-0.196 -0.319,-0.244 0.001,-0.211 -0.263,-0.28 -0.2,-0.436 -0.276,-0.185 -0.446,-0.389 -0.691,-0.595 l 0.136,-0.066 c -0.113,0.037 0.021,-0.083 -0.037,-0.104 -0.021,0.123 -0.155,0.055 -0.238,0.093 -0.044,-0.172 -0.259,-0.199 -0.405,-0.199 l 0.049,-0.08 c -0.202,0.08 -0.25,-0.111 -0.376,-0.214 0.003,-0.042 0.02,-0.133 -0.028,-0.148 -0.146,0.094 -0.181,0.063 -0.328,0.09 -0.073,-0.054 -0.202,-0.118 -0.271,-0.204 -0.39,0.103 -0.672,-0.15 -1.041,-0.026 l -0.013,-0.112 c -0.18,0.108 -0.357,0.07 -0.536,0.073 -0.177,0.011 -0.353,0.005 -0.483,0.078 l 0.004,-0.189 c -0.1,-0.048 -0.201,0.068 -0.153,0.197 -0.102,-0.057 -0.198,0.116 -0.284,-0.01 -0.097,-0.005 -0.085,0.118 -0.147,0.164 -0.19,-0.016 -0.251,0.021 -0.401,0.101 l 0.045,-0.001 c 0.004,-0.043 -0.021,-0.12 -0.069,-0.118 -0.047,0.058 -0.239,0.037 -0.094,0.218 -0.212,-0.029 -0.312,0.292 -0.553,0.221 0.047,0.045 0.015,0.076 0.021,0.12 -0.145,0.057 -0.324,0.093 -0.362,0.246 -0.038,-0.009 -0.033,-0.107 -0.089,-0.072 -0.016,0.043 0.051,0.063 0.035,0.12 -0.06,0.124 -0.175,0.178 -0.303,0.227 -0.113,0.06 -0.223,0.129 -0.288,0.227 -0.204,0.369 -0.42,0.718 -0.599,1.067 l -0.039,-0.022 c 0.11,0.182 -0.257,0.235 -0.048,0.418 -0.049,0.016 -0.053,0.105 -0.13,0.06 0.096,0.131 -0.228,0.25 -0.075,0.437 0.005,-0.013 -0.003,-0.022 -0.021,-0.042 -0.11,0.137 0.012,0.291 -0.097,0.443 -0.018,-0.019 -0.028,-0.049 -0.073,-0.058 -0.092,0.059 0.174,0.163 -0.045,0.186 -0.003,0.037 0.104,0.03 0.102,0.008 -0.081,0.177 -0.027,0.366 0.019,0.549 0.059,0.182 0.098,0.366 0.169,0.535 -0.045,0.282 -0.349,0.104 -0.128,0.267 -0.034,0.028 0.084,-0.012 0.042,0.004 0.082,0.059 -0.193,0.196 -0.066,0.218 0.12,-0.065 0.083,0.015 0.159,-0.011 -0.029,0.184 -0.141,0.271 0.006,0.352 l -0.067,0.02 c 0.256,0.055 0.249,0.259 0.51,0.259 0.44,0.683 1.092,1.157 1.785,1.447 0.152,0.11 0.322,0.192 0.507,0.229 0.18,0.047 0.354,0.114 0.534,0.149 0.375,0.012 0.739,0.115 1.129,0.094 0.2,0.167 0.223,0.158 0.41,0.068 -0.002,0.029 -0.015,0.038 0.006,0.063 -0.017,-0.139 0.138,-0.045 0.125,-0.194 0.271,-0.077 0.535,-0.139 0.786,-0.291 -0.033,0.037 -0.004,0.162 0.042,0.124 l 0.01,-0.115 0.026,0.033 c 0.023,-0.039 0.025,-0.125 -0.028,-0.15 0.59,-0.386 1.284,-0.707 1.686,-1.339 0.136,-0.121 0.205,-0.369 0.271,-0.543 0.18,-0.222 0.343,-0.461 0.482,-0.718 0.07,-0.27 0.104,-0.562 0.067,-0.859 -0.014,0.002 0.369,0.077 0.43,0.361 z"
               id="path108"
               inkscape:connector-curvature="0"
               style="fill:#ffffff" />
            <path
               d="m 173.487,31.626 c 0.071,-0.025 0.104,-0.105 0.213,-0.049 -0.07,0.012 -0.147,0.054 -0.213,0.049 z"
               id="path110"
               inkscape:connector-curvature="0"
               style="fill:#ffffff" />
            <path
               d="m 173.666,29.366 c -0.021,0.008 0.012,-0.043 0.02,-0.056 0.021,0.023 0.09,0.018 0.063,0.057 -0.02,-0.025 -0.049,-0.004 -0.083,-0.001 z"
               id="path112"
               inkscape:connector-curvature="0"
               style="fill:#ffffff" />
            <path
               d="m 173.415,28.819 c 0.062,-0.03 0.17,0.056 0.214,0.119 z"
               id="path114"
               inkscape:connector-curvature="0"
               style="fill:#ffffff" />
            <path
               d="m 173.281,28.207 c 0.012,-0.076 0.044,-0.085 0.087,-0.031 -0.025,0.027 -0.054,0.02 -0.087,0.031 z"
               id="path116"
               inkscape:connector-curvature="0"
               style="fill:#ffffff" />
            <path
               d="m 173.135,28.272 c -0.029,-0.035 -0.017,-0.078 -0.002,-0.122 -0.041,0.039 0.099,0.062 0.002,0.122 z"
               id="path118"
               inkscape:connector-curvature="0"
               style="fill:#ffffff" />
            <path
               d="m 172.362,27.264 c -0.027,-0.016 -0.112,-0.011 -0.092,-0.091 -0.006,0.062 0.17,0.027 0.092,0.091 z"
               id="path120"
               inkscape:connector-curvature="0"
               style="fill:#ffffff" />
            <path
               d="m 171.82,27.013 c -0.015,-0.013 -0.015,-0.027 -0.045,-0.021 -0.015,-0.043 0.044,-0.069 0.073,-0.059 z"
               id="path122"
               inkscape:connector-curvature="0"
               style="fill:#ffffff" />
            <polygon
               points="163.653,30.515 163.605,30.556 163.592,30.49 "
               id="polygon124"
               style="fill:#ffffff" />
            <path
               d="m 164.361,34.817 c 0.069,0.026 -0.026,0.069 -0.028,0.083 -0.04,-0.038 0.078,-0.029 0.028,-0.083 z"
               id="path126"
               inkscape:connector-curvature="0"
               style="fill:#ffffff" />
            <polygon
               points="166.337,36.021 166.277,36.144 166.262,36.138 "
               id="polygon128"
               style="fill:#ffffff" />
          </g>
        </g>
      </g>
    </g>
    <ellipse
       cx="84.792915"
       cy="46.94294"
       rx="1.2996334"
       ry="1.2909021"
       id="ellipse140"
       style="fill:#135079;stroke-width:0.26458332" />
    <g
       id="g172"
       transform="matrix(0.26458333,0,0,0.26458333,45.793599,38.52337)">
      <g
         id="g170">
        <g
           id="g168">
          <g
             id="g166">
            <path
               d="m 152.056,31.753 c 0.041,0.107 0.11,-0.059 0.058,0.07 -0.054,-0.015 -0.098,-0.034 -0.058,-0.07 z"
               id="path142"
               inkscape:connector-curvature="0"
               style="fill:#ffffff" />
            <path
               d="m 152.101,32.182 c 0.157,0.188 0.135,0.404 0.097,0.613 -0.079,0.203 -0.175,0.395 -0.129,0.623 0,0.05 -0.178,-0.075 -0.165,0.038 0.09,0.235 -0.017,0.47 -0.171,0.682 -0.153,0.214 -0.353,0.405 -0.597,0.502 l -0.026,-0.054 c -0.085,0.04 -0.012,0.233 -0.091,0.29 -0.028,-0.023 -0.021,-0.056 -0.071,-0.072 0.067,0.088 -0.065,0.159 -0.032,0.245 -0.055,-10e-4 -0.113,-0.063 -0.178,-0.061 l 0.057,0.127 c 0.106,0.32 -0.287,0.214 -0.339,0.46 -0.01,-0.029 -0.009,-0.059 -0.039,-0.07 -0.123,0.37 -0.516,0.546 -0.817,0.774 -0.006,-0.046 -0.031,-0.125 -0.07,-0.158 0.041,0.125 -0.048,0.211 -0.125,0.282 -0.09,-0.095 -0.118,0.171 -0.26,0.141 v -0.031 c -0.038,0.16 -0.151,-0.038 -0.169,0.144 l -0.086,-0.083 c 0.02,0.191 -0.147,-0.058 -0.189,0.056 l 0.013,0.037 c -0.056,0.065 -0.111,-0.017 -0.165,0.034 l -0.012,-0.02 c -0.132,0.101 -0.241,-0.009 -0.209,0.139 -0.072,-0.111 0.134,-0.068 0.02,-0.229 -0.449,0.19 -0.968,0.26 -1.452,0.17 -0.048,-0.063 -0.081,-0.085 -0.088,-0.142 -0.051,0.025 -0.182,0.009 -0.237,0.079 0.016,-10e-4 -0.021,-0.077 -0.045,-0.087 -0.074,-0.065 -0.127,0.158 -0.207,0.061 0.046,-0.027 0.064,-0.07 0.064,-0.127 -0.101,0.088 -0.203,0.039 -0.308,0.045 0.021,-0.02 0.049,-0.026 0.057,-0.073 -0.137,0.094 -0.177,-0.083 -0.29,-0.032 l 0.061,-0.071 c -0.108,-0.141 -0.099,0.156 -0.206,0.059 0.04,-0.017 0.04,-0.051 0.059,-0.081 -0.169,0.111 -0.346,0.008 -0.469,-0.015 0.01,-0.008 0.02,-0.029 0.02,-0.029 -0.128,-0.046 -0.228,-0.155 -0.391,-0.167 -0.027,-0.059 0.117,-0.173 -0.019,-0.212 -0.082,0.15 -0.247,-0.054 -0.276,0.15 -0.104,-0.071 -0.203,-0.265 -0.305,-0.264 0.081,-0.018 0.081,-0.203 0.166,-0.154 l 0.006,-0.129 c 0.051,-0.049 0.042,0.067 0.078,-0.019 -0.04,-0.024 -0.19,-0.06 -0.205,-0.108 -0.136,0.024 -0.331,0.117 -0.465,0.035 0.1,-0.003 0.097,-0.163 0.155,-0.153 0,0 -0.388,0.099 -0.384,0.088 -0.039,-0.034 0.09,-0.103 0.011,-0.128 -0.03,0.034 -0.07,0.028 -0.113,0.035 0.003,-0.027 -0.173,-0.14 -0.059,-0.265 0.037,-0.06 0.08,0.04 0.091,-0.042 -0.062,-0.069 -0.108,-0.037 -0.169,-0.107 l 0.017,-0.015 c -0.021,-0.062 -0.175,-0.097 -0.206,0.01 0.023,0.038 0.07,-0.074 0.072,0.005 -0.105,0.025 -0.201,-0.046 -0.265,-0.121 0.043,0.01 0.078,-0.02 0.125,-0.036 -0.194,-0.02 -0.281,-0.133 -0.405,-0.232 -0.069,0.039 0.151,-0.026 0.126,0.015 0.008,-0.217 -0.327,-0.269 -0.257,-0.482 0.024,0.017 -0.098,0.063 -0.076,0.05 -0.035,-0.085 0.072,-0.13 0.005,-0.164 0.063,-0.034 -0.061,-0.053 -0.093,-0.107 -0.058,-0.011 0.023,-0.028 0.049,0.019 -0.079,-0.055 -0.284,-0.355 -0.248,-0.575 -0.043,0.018 -0.197,-0.074 -0.206,-0.122 l 0.106,-0.008 c 0.05,-0.055 -0.055,-0.146 0.032,-0.173 -0.152,-0.063 0.214,0.332 0.08,0.229 0.076,-0.053 -0.216,-0.135 -0.068,-0.141 -0.028,-0.086 -0.18,-0.147 -0.085,-0.255 -0.014,0.029 0.15,0.045 0.137,-0.025 -0.032,-0.124 -0.055,-0.027 -0.1,-0.125 l -0.05,-0.059 c -0.102,0.009 0.002,-0.118 -0.106,-0.055 0.083,-0.027 -0.071,-0.187 0.099,-0.19 l 0.136,0.003 c -0.017,-0.053 -0.149,-0.077 -0.213,-0.116 0.012,-0.008 0.037,-0.025 0.06,-0.024 -0.206,0.004 0.003,-0.135 -0.161,-0.195 0.049,-0.122 -0.012,-0.307 0.131,-0.359 -0.055,-0.091 -0.119,-0.181 -0.065,-0.284 0.02,0.022 0.021,0.051 0.064,0.06 0.066,-0.06 0.015,-0.079 -0.014,-0.143 0.028,0.016 0.133,-0.117 0.212,-0.176 -0.052,-0.096 -0.163,-0.083 -0.229,-0.102 0.214,-0.048 -0.114,-0.285 0.105,-0.348 0.016,0.038 0.062,0.147 0.131,0.085 0.22,-0.032 -0.099,-0.19 0.035,-0.294 l -0.172,-0.013 c 0.116,-0.029 -0.034,-0.217 0.125,-0.156 -0.045,-0.061 0.101,-0.134 -0.059,-0.171 0.19,-0.167 0.089,-0.557 0.437,-0.544 -0.01,-0.039 0.054,-0.095 -0.03,-0.118 -0.106,0.005 0.023,0.093 -0.041,0.082 0.01,-0.027 -0.028,-0.052 -0.047,-0.064 0.065,-0.045 0.102,-0.085 0.192,0.032 0.16,-0.082 -0.174,-0.265 -0.021,-0.408 0.055,0.042 0.084,0.042 0.102,-0.013 l -0.046,-0.156 c 0.085,-0.097 0.164,0.021 0.262,0.081 0.014,-0.069 0.06,-0.133 0.013,-0.204 l 0.169,0.022 c -0.122,-0.017 -0.021,-0.082 -0.024,-0.122 l 0.003,0.041 c 0.047,0.02 0.07,-0.056 0.083,-0.094 -0.062,-0.038 -0.136,0.005 -0.179,0.027 -0.021,-0.057 0.022,-0.09 0.006,-0.162 0.081,0.081 0.135,-0.035 0.178,-0.068 0.058,-0.032 -0.035,-0.119 -0.021,-0.13 0.046,0.037 0.072,-0.071 0.103,0.02 10e-4,0.027 -0.072,0 -0.057,0.059 0.059,-0.002 0.134,0.067 0.131,-0.044 -0.002,-0.085 -0.178,-0.135 -0.047,-0.181 0.001,0.044 0.03,0.078 0.045,0.124 l 0.113,-0.045 -0.072,-0.075 c 0.028,0.008 0.028,0.021 0.043,0.025 -0.057,-0.099 0.085,-0.154 0.018,-0.258 0.037,-0.044 0.143,-0.027 0.192,-0.053 l -0.003,0.013 c 0.093,0.002 0.132,-0.081 0.13,-0.17 l 0.013,0.02 c 0.033,-0.018 0.091,-0.083 0.089,-0.158 0.118,10e-4 0.264,0.282 0.261,0.119 0.065,-0.058 -0.002,-0.24 -0.071,-0.27 0.164,-0.058 0.232,-0.304 0.459,-0.235 0,-0.047 -0.026,-0.062 0.007,-0.106 0.234,-0.083 0.414,-0.362 0.671,-0.269 -0.047,0.072 0.036,0.096 0.062,0.149 0.014,-0.112 0.099,0.065 0.058,-0.089 -0.04,-0.083 -0.053,-0.129 -0.133,-0.14 0.121,-0.094 0.342,-0.161 0.447,-0.103 -0.053,-0.029 -0.032,-0.064 -0.008,-0.101 0.033,0.143 0.143,0.133 0.208,0.06 l -0.015,-0.091 0.077,0.074 c 0.021,-0.037 -0.017,-0.193 0.085,-0.133 0.014,0.033 0.026,0.066 0.046,0.086 0.064,-0.091 0.156,-0.267 0.267,-0.192 l 0.101,0.121 c 0.035,-0.019 0.089,-0.104 0.013,-0.134 0.174,0.061 0.274,0.061 0.336,0.17 0.237,-0.303 0.658,-0.374 0.979,-0.293 l -0.015,0.066 c 0.08,0.071 0.054,-0.114 0.109,-0.06 -0.033,0.061 0.054,0.145 -0.019,0.217 0.109,0.082 0.166,-0.101 0.25,-0.123 0.022,-0.087 -0.07,0.05 -0.041,-0.061 0.017,-0.03 0.161,0.086 0.2,-0.044 0.021,0.056 -0.018,0.151 -0.039,0.203 l 0.082,-0.057 c 0.063,0.164 -0.243,0.256 -0.178,0.458 l 0.064,-0.016 c 0.038,0.144 -0.188,0.141 -0.039,0.204 0.076,-0.059 0.17,-0.244 0.116,-0.309 0.153,-0.018 0.127,-0.314 0.29,-0.271 0.027,0.083 -0.136,-0.008 -0.125,0.109 0.056,0.107 0.162,-0.021 0.221,0.032 -0.063,-0.073 0.029,-0.186 0.088,-0.194 0.067,0.086 -0.085,0.106 0.028,0.155 0.037,-0.07 0.162,-0.093 0.081,-0.174 0.091,-0.156 0.11,0.084 0.215,-0.025 0.001,0.129 -0.201,0.237 -0.093,0.335 0.014,-0.122 0.206,-0.106 0.19,-0.295 0.043,0.049 0.019,0.138 -0.042,0.197 0.047,0.09 0.247,-0.15 0.191,0.079 l 0.064,-0.106 c 0.012,0.044 0.032,0.083 0.044,0.155 0.063,0.017 0.267,-0.081 0.187,0.091 0.024,-0.008 0.154,0.07 0.156,-0.073 -0.053,-0.116 -0.134,0.034 -0.113,-0.149 0.005,0.16 0.131,0.047 0.2,0.032 l -0.021,0.069 c 0.04,-0.01 0.102,0.039 0.153,-0.02 -0.041,0.025 -0.05,0.075 -0.034,0.102 l 0.079,-0.079 c 0.146,0.017 -0.058,0.183 0.072,0.218 l -0.126,0.029 c 0.025,-0.006 0.019,0.103 0.086,0.102 0.068,-0.076 0.167,-0.156 0.225,-0.213 0.087,-10e-4 -0.027,0.112 0.088,0.06 l -0.144,0.058 c -0.026,0.021 -0.023,0.171 0.06,0.214 0.07,0 0.233,-0.073 0.173,-0.167 0.045,0.023 0.073,0.107 0,0.149 0.116,0.024 0.044,-0.096 0.164,-0.1 0,0.073 0.039,0.231 0.04,0.353 l -0.171,0.074 0.048,0.041 c -0.138,0.057 -0.024,0.107 -0.141,0.192 0.018,0.043 0.085,0.038 0.137,0.034 0.036,-0.258 0.293,-0.155 0.396,-0.336 0.178,0.074 -0.229,0.453 0.119,0.327 0.011,-0.059 0.182,-0.119 0.056,-0.148 0.072,0.088 0.195,-0.104 0.243,0.047 -0.133,-0.002 -0.059,0.217 -0.248,0.217 0.051,-0.044 -0.026,-0.087 -0.057,-0.087 -0.019,0.087 -0.142,0.148 -0.059,0.218 0.064,0.027 0.137,0.083 0.201,-10e-4 0.079,-0.085 -0.089,-0.059 0.025,-0.116 0.136,0.058 0.023,0.2 0.207,0.1 -0.065,-0.058 -0.003,-0.154 0.057,-0.21 0.004,-0.004 0.106,0.042 0.106,0.042 l -0.068,0.039 c 0.069,0.167 0.134,-0.061 0.227,0.081 l -0.063,0.162 c -0.123,0.059 -0.109,-0.221 -0.247,-0.051 0.06,0.083 0.162,0.038 0.184,0.149 -0.027,-0.004 -0.05,-0.024 -0.078,-0.027 0.02,0.036 -0.172,0.249 0.045,0.25 0.098,0.016 0.072,-0.033 0.136,-0.083 0.125,0.113 0.222,0.102 0.302,0.179 -0.142,0.077 0.105,0.157 -0.099,0.159 0.042,-0.095 -0.12,-0.278 -0.271,-0.228 -0.107,0.164 -0.063,-0.116 -0.229,-0.02 0.079,0.101 -0.065,0.213 -0.146,0.304 0.016,0.031 0.074,0.023 0.102,0.027 0.099,-0.059 0.068,-0.092 0.156,-0.167 0.065,0.126 0.201,0.192 0.343,0.191 -0.016,0.07 -0.119,0.121 -0.162,0.085 0.137,0.107 0.191,0.288 0.244,0.438 0.11,-0.183 0.122,0.135 0.225,-0.001 -0.006,-0.096 0.068,-0.23 0.166,-0.228 0.018,0.057 -0.071,0.039 -0.097,0.079 0.124,0.014 -0.087,0.173 0.085,0.16 -0.129,-0.113 -0.211,0.079 -0.352,0.122 0.123,0.057 -0.095,0.044 -0.043,0.136 0.122,0.057 0.243,0.147 0.328,0.242 -0.075,0.196 0.116,0.366 0.164,0.499 -0.048,0.089 -0.218,0.093 -0.225,0.171 0.029,0.083 0.151,-0.111 0.117,0.035 l -0.034,-0.002 c 0.049,0.029 -0.037,0.251 0.202,0.237 h -0.185 c -0.009,0.027 0.038,0.039 0.062,0.054 -0.056,0.014 -0.098,0.051 -0.146,0.022 -0.088,0.097 0.044,0.155 0.062,0.239 l 0.098,-0.073 c 0.096,0.135 0.003,0.25 0.055,0.387 l -0.104,0.005 0.07,0.079 c -0.101,-0.012 -0.157,0.068 -0.07,0.106 l -0.27,-0.189 c 0.053,-0.065 0.128,0.049 0.226,0.003 0.084,-0.04 0.043,-0.169 -0.058,-0.175 -0.006,0.05 0.017,0.05 0.059,0.083 -0.141,0.033 -0.143,-0.041 -0.238,-0.063 0.008,0.024 -0.032,0.064 0.014,0.064 -0.073,-0.039 -0.089,-0.085 -0.102,-0.165 0.061,0.045 0.085,-0.044 0.128,-0.03 -0.126,0.014 -0.169,-0.055 -0.146,-0.158 0.12,-0.099 -0.146,-0.156 -0.142,-0.271 0.136,0.009 0.254,0.042 0.326,0.1 0.04,-0.088 -0.028,-0.079 0.01,-0.168 -0.103,-0.009 -0.248,0.005 -0.331,-0.067 l 0.089,-0.033 c -0.072,-0.068 -0.204,-0.023 -0.21,-0.132 0.002,-0.194 -0.074,-0.368 -0.143,-0.491 l 0.08,-0.046 c -0.216,0.02 -0.189,-0.195 -0.318,-0.244 0.002,-0.211 -0.261,-0.281 -0.2,-0.437 -0.276,-0.186 -0.446,-0.389 -0.691,-0.595 l 0.136,-0.066 c -0.112,0.037 0.022,-0.082 -0.035,-0.105 -0.021,0.124 -0.156,0.056 -0.238,0.094 -0.045,-0.171 -0.26,-0.199 -0.406,-0.198 l 0.05,-0.08 c -0.203,0.08 -0.25,-0.111 -0.378,-0.214 0.003,-0.042 0.02,-0.134 -0.027,-0.148 -0.146,0.093 -0.182,0.062 -0.327,0.089 -0.073,-0.054 -0.203,-0.119 -0.271,-0.204 -0.39,0.103 -0.672,-0.149 -1.042,-0.026 l -0.013,-0.112 c -0.18,0.107 -0.357,0.071 -0.535,0.074 -0.177,0.01 -0.353,0.005 -0.482,0.078 l 0.004,-0.189 c -0.103,-0.049 -0.202,0.068 -0.155,0.197 -0.102,-0.057 -0.199,0.116 -0.284,-0.01 -0.096,-0.007 -0.086,0.118 -0.148,0.164 -0.188,-0.017 -0.251,0.02 -0.4,0.101 l 0.046,-10e-4 c 0.003,-0.043 -0.022,-0.12 -0.068,-0.118 -0.048,0.057 -0.241,0.037 -0.094,0.217 -0.216,-0.029 -0.313,0.292 -0.555,0.221 0.046,0.045 0.014,0.076 0.02,0.119 -0.144,0.057 -0.322,0.093 -0.36,0.246 -0.041,-0.009 -0.034,-0.108 -0.089,-0.072 -0.016,0.042 0.048,0.063 0.033,0.12 -0.059,0.123 -0.174,0.178 -0.301,0.227 -0.112,0.061 -0.224,0.129 -0.289,0.227 -0.203,0.369 -0.419,0.718 -0.598,1.067 l -0.039,-0.021 c 0.108,0.182 -0.257,0.235 -0.047,0.418 -0.051,0.016 -0.056,0.105 -0.132,0.059 0.097,0.131 -0.227,0.25 -0.074,0.437 0.005,-0.013 -0.003,-0.022 -0.021,-0.042 -0.11,0.138 0.012,0.292 -0.096,0.444 -0.02,-0.019 -0.029,-0.049 -0.073,-0.059 -0.093,0.059 0.175,0.163 -0.047,0.186 -0.003,0.037 0.105,0.031 0.102,0.008 -0.08,0.177 -0.027,0.366 0.021,0.549 0.058,0.183 0.098,0.366 0.168,0.536 -0.045,0.281 -0.349,0.104 -0.128,0.267 -0.035,0.028 0.084,-0.011 0.042,0.004 0.082,0.059 -0.192,0.196 -0.065,0.218 0.118,-0.064 0.082,0.014 0.158,-0.011 -0.03,0.184 -0.142,0.271 0.006,0.353 l -0.068,0.019 c 0.257,0.056 0.249,0.259 0.509,0.259 0.442,0.684 1.092,1.158 1.785,1.447 0.155,0.109 0.323,0.191 0.508,0.228 0.179,0.047 0.354,0.115 0.536,0.15 0.372,0.012 0.737,0.114 1.126,0.094 0.2,0.167 0.222,0.158 0.412,0.068 -0.002,0.029 -0.014,0.038 0.004,0.063 -0.016,-0.139 0.141,-0.045 0.126,-0.194 0.272,-0.077 0.533,-0.139 0.787,-0.291 -0.033,0.037 -0.004,0.162 0.042,0.125 l 0.01,-0.116 0.026,0.033 c 0.023,-0.038 0.025,-0.124 -0.03,-0.149 0.59,-0.386 1.286,-0.706 1.687,-1.339 0.137,-0.121 0.207,-0.371 0.271,-0.544 0.181,-0.222 0.343,-0.461 0.481,-0.718 0.072,-0.27 0.105,-0.562 0.069,-0.859 -0.016,-0.005 0.365,0.07 0.427,0.354 z"
               id="path144"
               inkscape:connector-curvature="0"
               style="fill:#ffffff" />
            <path
               d="m 152.026,31.626 c 0.073,-0.025 0.104,-0.105 0.212,-0.049 -0.068,0.012 -0.143,0.054 -0.212,0.049 z"
               id="path146"
               inkscape:connector-curvature="0"
               style="fill:#ffffff" />
            <path
               d="m 152.206,29.366 c -0.021,0.008 0.012,-0.043 0.02,-0.056 0.02,0.023 0.089,0.018 0.063,0.057 -0.02,-0.025 -0.049,-0.004 -0.083,-0.001 z"
               id="path148"
               inkscape:connector-curvature="0"
               style="fill:#ffffff" />
            <path
               d="m 151.956,28.819 c 0.061,-0.03 0.167,0.056 0.213,0.119 z"
               id="path150"
               inkscape:connector-curvature="0"
               style="fill:#ffffff" />
            <path
               d="m 151.821,28.207 c 0.011,-0.076 0.045,-0.085 0.088,-0.031 -0.026,0.027 -0.055,0.02 -0.088,0.031 z"
               id="path152"
               inkscape:connector-curvature="0"
               style="fill:#ffffff" />
            <path
               d="m 151.677,28.272 c -0.032,-0.035 -0.018,-0.079 -0.003,-0.122 -0.042,0.039 0.1,0.062 0.003,0.122 z"
               id="path154"
               inkscape:connector-curvature="0"
               style="fill:#ffffff" />
            <path
               d="m 150.903,27.264 c -0.027,-0.016 -0.112,-0.011 -0.091,-0.091 -0.005,0.062 0.169,0.027 0.091,0.091 z"
               id="path156"
               inkscape:connector-curvature="0"
               style="fill:#ffffff" />
            <path
               d="m 150.361,27.012 c -0.016,-0.013 -0.016,-0.026 -0.043,-0.021 -0.017,-0.042 0.042,-0.068 0.071,-0.058 z"
               id="path158"
               inkscape:connector-curvature="0"
               style="fill:#ffffff" />
            <polygon
               points="142.194,30.515 142.146,30.556 142.133,30.49 "
               id="polygon160"
               style="fill:#ffffff" />
            <path
               d="m 142.902,34.817 c 0.069,0.026 -0.026,0.069 -0.029,0.083 -0.039,-0.038 0.08,-0.029 0.029,-0.083 z"
               id="path162"
               inkscape:connector-curvature="0"
               style="fill:#ffffff" />
            <polygon
               points="144.878,36.021 144.819,36.144 144.802,36.138 "
               id="polygon164"
               style="fill:#ffffff" />
          </g>
        </g>
      </g>
    </g>
    <path
       d="m 79.371605,51.883241 c 0.284691,0 0.515144,0.225954 0.515144,0.505089 v 5.726377 c 0,0.278871 -0.230453,0.505884 -0.515144,0.505884 h -2.408238 c -0.284956,0 -0.515937,-0.227013 -0.515937,-0.505884 v -5.725583 c 0,-0.279665 0.230981,-0.505354 0.515937,-0.505354 z"
       id="path278"
       inkscape:connector-curvature="0"
       style="fill:#135079;stroke-width:0.26458332" />
    <g
       id="g310"
       transform="matrix(0.26458333,0,0,0.26458333,45.793599,38.52337)">
      <g
         id="g308">
        <g
           id="g306">
          <g
             id="g304">
            <path
               d="m 127.106,50.263 c -0.301,0.003 0.151,0.133 -0.197,0.034 0.04,-0.049 0.101,-0.086 0.197,-0.034 z"
               id="path280"
               inkscape:connector-curvature="0"
               style="fill:#ffffff" />
            <path
               d="m 126.01,50.322 c -0.868,0.352 -2.015,-0.004 -2.967,0.221 -0.11,0.015 0.029,-0.192 -0.222,-0.146 -0.924,0.273 -2.378,0.11 -3.503,-0.101 l 0.067,-0.054 c -0.214,-0.04 -0.478,0.14 -0.703,0.115 -0.001,-0.037 0.071,-0.051 0.02,-0.101 -0.058,0.109 -0.41,0.05 -0.506,0.132 -0.092,-0.042 -0.083,-0.129 -0.198,-0.176 l -0.13,0.124 c -0.185,0.167 -0.404,0.145 -0.637,0.212 -0.235,0.035 -0.505,0.13 -0.653,0.349 10e-4,-0.038 0.026,-0.087 -0.021,-0.084 -0.282,0.313 -0.522,0.708 -0.602,1.152 -0.069,0.435 -0.019,0.911 0.003,1.353 -0.044,-0.035 -0.124,-0.068 -0.172,-0.017 0.13,0.043 0.163,0.318 0.188,0.554 -0.136,0.106 0.123,0.406 0.049,0.685 l -0.03,-0.024 c 0.141,0.206 -0.081,0.305 0.088,0.471 l -0.104,0.13 c 0.188,0.091 -0.1,0.298 -0.002,0.468 l 0.039,-0.005 c 0.046,0.16 -0.049,0.244 -0.02,0.392 l -0.021,0.014 c 0.05,0.347 -0.058,0.549 0.092,0.542 -0.118,0.121 -0.054,-0.337 -0.226,-0.146 0.151,1.145 0.123,2.324 0.125,3.476 -0.06,0.131 -0.077,0.215 -0.134,0.245 0.03,0.115 0.026,0.434 0.103,0.538 -0.003,-0.038 -0.076,0.075 -0.083,0.134 -0.058,0.21 0.163,0.23 0.096,0.46 -0.04,-0.092 -0.087,-0.122 -0.141,-0.092 0.114,0.197 0.095,0.459 0.133,0.69 -0.025,-0.035 -0.04,-0.093 -0.085,-0.083 0.131,0.253 -0.028,0.462 0.055,0.685 l -0.085,-0.083 c -0.104,0.358 0.178,0.106 0.116,0.416 -0.027,-0.075 -0.061,-0.049 -0.095,-0.062 0.155,0.289 0.103,0.756 0.156,1.044 -0.013,-0.017 -0.036,-0.013 -0.036,-0.013 0.02,0.313 -0.028,0.641 0.039,0.987 -0.038,0.126 -0.209,-0.041 -0.177,0.291 0.173,-0.011 0.07,0.565 0.264,0.368 -0.026,0.285 -0.091,0.733 -0.033,0.923 -0.065,-0.129 -0.209,0.138 -0.225,-0.098 l -0.102,0.179 c -0.07,-0.027 0.021,-0.184 -0.065,-0.129 0.007,0.12 0.075,0.463 0.047,0.57 0.105,0.218 0.302,0.42 0.323,0.774 -0.065,-0.166 -0.188,0.097 -0.217,-0.018 l 0.326,0.495 c 0.009,0.117 -0.134,0.024 -0.091,0.194 0.046,-0.008 0.072,0.067 0.109,0.117 -0.021,0.047 0.042,0.491 -0.125,0.542 -0.065,0.052 -0.036,-0.19 -0.097,-0.061 0.002,0.218 0.06,0.226 0.063,0.447 l -0.022,0.002 c -0.024,0.145 0.071,0.425 0.166,0.269 0.006,-0.099 -0.103,0.039 -0.053,-0.108 0.098,0.099 0.125,0.354 0.126,0.571 -0.026,-0.076 -0.071,-0.066 -0.119,-0.096 0.132,0.293 0.174,0.604 0.229,0.93 0.08,0.006 -0.146,-0.121 -0.103,-0.17 -0.111,0.42 0.158,0.865 -0.005,1.216 -0.016,-0.06 0.112,-0.032 0.092,-0.028 -0.01,0.202 -0.126,0.194 -0.083,0.325 -0.068,0.013 0.021,0.166 0.042,0.299 0.05,0.071 -0.033,0.036 -0.041,-0.081 0.058,0.188 0.163,0.943 0.062,1.379 0.046,-0.01 0.164,0.283 0.176,0.319 l -0.108,-0.021 c -0.053,0.074 0.027,0.248 -0.042,0.275 0.086,0.061 0.005,-0.074 -0.029,-0.227 -0.056,-0.133 -0.077,-0.354 -0.03,-0.203 -0.094,0.102 0.199,0.307 0.048,0.281 0.019,0.158 0.182,0.25 0.151,0.418 -0.004,-0.043 -0.198,-0.055 -0.125,0.06 0.136,0.198 0.074,0.041 0.201,0.176 l 0.107,0.06 c 0.085,-0.062 0.112,0.158 0.146,0.019 -0.044,0.089 0.265,0.149 0.146,0.278 l -0.103,0.09 c 0.088,0.061 0.224,-0.037 0.311,-0.051 0.004,0.016 0.015,0.053 0,0.07 0.091,-0.168 0.21,0.094 0.355,-0.023 0.083,0.054 0.202,0.056 0.313,0.082 0.147,0.009 0.277,0.025 0.34,0.089 0.199,-0.062 0.38,-0.136 0.607,-0.093 -0.046,0.021 -0.106,0.027 -0.12,0.068 0.143,0.061 0.178,0.008 0.309,-0.025 -0.029,0.029 0.287,0.121 0.444,0.193 0.197,-0.062 0.131,-0.175 0.15,-0.24 0.181,0.201 0.56,-0.131 0.786,0.053 -0.067,0.027 -0.289,0.1 -0.124,0.15 0.182,0.201 0.365,-0.148 0.658,-0.052 l -0.072,-0.171 c 0.129,0.105 0.431,-0.095 0.4,0.075 0.098,-0.062 0.344,0.058 0.313,-0.106 0.48,0.137 1.167,-0.086 1.462,0.211 0.067,-0.027 0.241,0 0.206,-0.086 -0.113,-0.094 -0.159,0.064 -0.201,0.004 0.06,-0.006 0.074,-0.051 0.081,-0.072 0.149,0.037 0.268,0.049 0.126,0.187 0.332,0.099 0.342,-0.278 0.765,-0.215 -0.021,0.067 0.013,0.095 0.135,0.083 l 0.235,-0.117 c 0.272,0.026 0.156,0.155 0.163,0.271 0.145,-0.021 0.325,-0.018 0.391,-0.102 l 0.176,0.143 c -0.129,-0.102 0.121,-0.068 0.188,-0.096 l -0.068,0.026 c 0.026,0.05 0.196,0.021 0.282,0.005 -0.021,-0.07 -0.193,-0.1 -0.289,-0.121 0.075,-0.051 0.191,-0.037 0.29,-0.098 -0.033,0.113 0.239,0.081 0.354,0.093 0.136,0.024 0.151,-0.101 0.19,-0.097 0.003,0.059 0.216,0.01 0.112,0.093 -0.045,0.019 -0.104,-0.06 -0.179,-0.006 0.09,0.044 0.077,0.146 0.261,0.071 0.138,-0.057 -0.036,-0.225 0.225,-0.152 -0.068,0.027 -0.081,0.072 -0.134,0.113 l 0.245,0.059 0.009,-0.104 c 0.034,0.027 0.01,0.037 0.025,0.051 0.063,-0.113 0.396,-0.028 0.403,-0.163 0.081,-0.024 0.191,0.063 0.278,0.048 l -0.013,0.016 c 0.11,0.019 0.256,-0.041 0.294,-0.158 l 0.005,0.021 c 0.049,-0.025 0.175,-0.085 0.184,-0.188 0.154,-0.026 0.281,0.269 0.335,0.061 0.105,-0.138 0.016,-0.309 -0.076,-0.305 0.216,-0.176 0.181,-0.479 0.334,-0.684 -0.036,-0.041 -0.065,-0.021 -0.08,-0.093 0.047,-0.507 -0.12,-1.114 0.083,-1.53 0.043,0.153 0.103,0.012 0.16,0.008 -0.092,-0.127 0.098,-0.15 -0.061,-0.197 -0.094,0.012 -0.138,0 -0.176,0.15 -0.049,-0.317 -0.049,-0.797 0.038,-0.976 -0.043,0.089 -0.071,0.021 -0.1,-0.05 0.146,0.023 0.17,-0.21 0.118,-0.389 l -0.09,-0.021 0.092,-0.115 c -0.028,-0.068 -0.188,-0.074 -0.102,-0.25 0.034,-0.011 0.07,-0.019 0.096,-0.053 -0.072,-0.184 -0.199,-0.438 -0.122,-0.637 l 0.132,-0.164 c -0.016,-0.083 -0.094,-0.227 -0.132,-0.077 0.08,-0.335 0.09,-0.555 0.203,-0.664 -0.278,-0.581 -0.29,-1.427 -0.269,-2.103 l 0.066,0.021 c 0.063,-0.183 -0.118,-0.096 -0.07,-0.222 0.063,0.059 0.14,-0.138 0.218,0.003 0.071,-0.259 -0.116,-0.335 -0.147,-0.503 -0.089,-0.027 0.058,0.134 -0.056,0.102 -0.032,-0.029 0.068,-0.359 -0.065,-0.399 0.054,-0.066 0.152,-0.016 0.207,0.02 l -0.064,-0.161 c 0.156,-0.193 0.279,0.444 0.472,0.241 l -0.021,-0.146 c 0.141,-0.14 0.159,0.388 0.207,0.02 -0.065,-0.161 -0.261,-0.296 -0.318,-0.156 -0.037,-0.331 -0.32,-0.154 -0.31,-0.51 0.079,-0.097 0.02,0.287 0.13,0.217 0.108,-0.169 -0.061,-0.336 -0.022,-0.487 -0.051,0.167 -0.187,0.026 -0.21,-0.081 0.063,-0.182 0.127,0.117 0.141,-0.141 -0.078,-0.042 -0.135,-0.278 -0.188,-0.073 -0.176,-0.094 0.049,-0.27 -0.089,-0.409 0.125,-0.083 0.286,0.266 0.348,-0.018 -0.119,0.045 -0.162,-0.348 -0.338,-0.198 0.035,-0.112 0.128,-0.124 0.201,-0.042 0.073,-0.159 -0.218,-0.385 0.02,-0.437 l -0.122,-0.054 c 0.04,-0.051 0.069,-0.121 0.136,-0.202 0.002,-0.14 -0.166,-0.449 0.019,-0.437 -0.019,-0.044 -0.01,-0.363 -0.136,-0.241 -0.078,0.198 0.092,0.228 -0.08,0.338 0.14,-0.14 -0.019,-0.285 -0.064,-0.4 l 0.07,-0.018 c -0.027,-0.069 -0.015,-0.226 -0.089,-0.268 0.042,0.052 0.089,0.024 0.104,-0.03 l -0.106,-0.071 c -0.056,-0.277 0.188,-0.064 0.158,-0.336 l 0.084,0.205 c -0.019,-0.044 0.083,-0.136 0.05,-0.265 -0.1,-0.049 -0.218,-0.145 -0.294,-0.188 -0.042,-0.152 0.112,-0.067 0.011,-0.217 l 0.119,0.196 c 0.032,0.029 0.163,-0.133 0.161,-0.335 -0.035,-0.129 -0.178,-0.332 -0.231,-0.125 -0.001,-0.102 0.058,-0.246 0.131,-0.165 -0.035,-0.228 -0.104,0.032 -0.167,-0.167 0.065,-0.081 0.159,-0.334 0.254,-0.487 l 0.164,0.208 0.002,-0.138 c 0.133,0.179 0.102,-0.089 0.24,0.012 0.022,-0.095 -0.024,-0.21 -0.061,-0.301 -0.225,0.275 -0.306,-0.308 -0.511,-0.229 -0.056,-0.378 0.496,-0.237 0.178,-0.63 -0.054,0.065 -0.208,-0.121 -0.15,0.115 0.022,-0.234 -0.204,-0.16 -0.119,-0.437 0.083,0.207 0.206,-0.22 0.326,0.077 -0.067,-0.019 -0.051,0.166 -0.03,0.21 0.077,-0.095 0.205,0.021 0.205,-0.22 -0.02,-0.146 -0.022,-0.347 -0.13,-0.317 -0.117,0.005 0.012,0.223 -0.104,0.13 -0.04,-0.293 0.136,-0.341 -0.07,-0.462 0.017,0.185 -0.104,0.231 -0.184,0.227 l -0.048,-0.214 0.076,0.042 c 0.056,-0.343 -0.14,-0.101 -0.119,-0.435 l 0.152,-0.157 c 0.132,0.08 -0.06,0.485 0.156,0.425 0.009,-0.217 -0.101,-0.289 -0.045,-0.493 0.019,0.045 0.022,0.107 0.043,0.153 0.007,-0.078 0.291,-0.156 0.125,-0.464 -0.064,-0.16 -0.076,-0.042 -0.156,-0.045 -0.024,-0.349 -0.106,-0.453 -0.12,-0.677 0.157,0.046 0.016,-0.396 0.177,-0.149 -0.093,0.114 -0.084,0.618 0.065,0.741 0.185,-0.126 -0.025,0.271 0.162,0.348 0.006,-0.279 0.187,-0.267 0.308,-0.311 0.009,-0.078 -0.043,-0.154 -0.062,-0.198 -0.112,-0.034 -0.11,0.068 -0.227,0.074 0.031,-0.313 -0.032,-0.612 -0.143,-0.784 0.057,-0.103 0.17,-0.072 0.18,0.052 -0.034,-0.371 -0.019,-0.768 0.016,-1.118 -0.183,0.228 -0.043,-0.394 -0.196,-0.239 -0.041,0.189 -0.172,0.351 -0.253,0.248 0.012,-0.119 0.079,0.004 0.119,-0.045 -0.101,-0.151 0.161,-0.233 0.002,-0.38 0.059,0.337 0.225,0.064 0.368,0.128 -0.082,-0.244 0.103,0.01 0.103,-0.231 -0.08,-0.244 -0.144,-0.543 -0.174,-0.813 0.136,-0.34 0.002,-0.861 -0.003,-1.164 0.072,-0.157 0.236,-0.051 0.264,-0.224 -0.003,-0.202 -0.174,0.15 -0.101,-0.149 l 0.032,0.028 c -0.029,-0.095 0.085,-0.536 -0.178,-0.554 0,0 0.2,0.035 0.196,0.038 0.003,-0.053 -0.056,-0.089 -0.083,-0.124 0.054,-0.017 0.085,-0.093 0.147,-0.02 0.074,-0.219 -0.152,-0.356 -0.254,-0.511 l -0.031,0.161 c -0.214,-0.226 -0.298,-0.431 -0.562,-0.594 l 0.063,-0.079 c 0.001,-0.005 -0.193,-0.037 -0.193,-0.037 0.09,-0.06 -0.041,-0.217 -0.17,-0.172 -0.014,-0.021 0.582,0.006 0.582,0.038 0.082,0.143 -0.201,-0.002 -0.183,0.14 0.004,0.125 0.254,0.266 0.348,0.253 -0.063,-0.101 -0.097,-0.08 -0.188,-0.11 0.061,-0.131 0.208,-0.021 0.33,-0.003 -0.043,-0.051 -0.084,-0.148 -0.129,-0.122 0.149,0.033 0.243,0.145 0.39,0.319 -0.134,-0.094 -0.025,0.117 -0.096,0.093 0.102,-0.053 0.281,0.112 0.336,0.397 -0.063,0.212 0.222,0.515 0.184,0.833 -0.12,-0.112 -0.247,-0.283 -0.313,-0.447 -0.048,0.19 0.03,0.206 -0.026,0.387 0.095,0.088 0.239,0.152 0.297,0.388 l -0.095,0.013 c 0.048,0.214 0.187,0.214 0.16,0.488 -0.046,0.468 -0.046,0.949 -0.058,1.307 l -0.101,0.018 c 0.2,0.199 0.074,0.663 0.162,0.931 -0.089,0.455 0.091,0.987 -0.07,1.221 0.07,0.804 0.142,1.505 0.106,2.337 l -0.134,-0.14 c 0.098,0.149 -0.079,0.098 -0.06,0.244 0.109,-0.169 0.143,0.202 0.225,0.306 -0.105,0.37 0.009,0.847 0.104,1.175 l -0.095,0.013 c 0.176,0.332 0.021,0.729 -0.007,1.142 -0.038,0.046 -0.126,0.121 -0.116,0.245 0.151,0.225 0.14,0.343 0.235,0.671 0,0.241 -0.038,0.631 -0.097,0.876 0.211,0.902 0.077,1.827 0.205,2.766 l -0.108,0.068 c 0.233,0.911 0.021,2.03 0.142,2.809 l -0.188,-0.075 c -0.059,0.242 0.049,0.556 0.182,0.494 -0.058,0.244 0.091,0.608 -0.064,0.766 -0.033,0.25 0.088,0.305 0.113,0.514 -0.072,0.502 -0.055,0.686 -0.02,1.158 l 0.012,-0.118 c -0.041,-0.052 -0.121,-0.058 -0.133,0.062 0.052,0.177 -0.052,0.646 0.173,0.472 -0.065,0.252 -0.038,0.546 -0.018,0.837 0.013,0.313 0.057,0.525 -0.079,0.906 0.066,-0.053 0.06,0.121 0.091,0.203 -0.121,0.644 -0.597,1.121 -0.891,1.51 -0.094,0.035 0.05,-0.178 -0.144,-0.025 -0.098,0.108 0.049,0.062 -0.073,0.205 -0.383,0.325 -0.906,0.512 -1.401,0.481 -0.462,-0.009 -0.729,-0.081 -1.079,-0.06 -1.157,0.116 -2.365,0.057 -3.474,0.078 l 0.014,-0.047 c -0.371,0.176 -0.87,-0.175 -1.166,0.083 -0.089,-0.042 -0.335,-0.021 -0.271,-0.106 -0.296,0.123 -0.828,-0.112 -1.254,0.041 0.039,0.006 0.061,-0.004 0.106,-0.024 -0.432,-0.097 -0.813,0.037 -1.269,-0.052 0.046,-0.02 0.131,-0.035 0.145,-0.079 -0.176,-0.087 -0.416,0.19 -0.515,-0.026 -0.1,0.002 -0.071,0.107 -0.01,0.104 -0.421,-0.032 -1.203,-0.006 -1.818,-0.346 -0.623,-0.31 -1.148,-0.893 -1.349,-1.604 -0.032,-0.527 0.091,-0.541 0.136,-0.532 0.063,0.024 0.062,0.005 -0.016,-0.28 0.042,-0.05 -0.083,-0.035 -0.039,-0.043 -0.06,-0.227 0.243,-0.352 0.13,-0.512 -0.134,0.064 -0.075,-0.105 -0.156,-0.109 0.087,-0.453 0.208,-0.545 0.105,-0.904 l 0.07,0.027 c -0.199,-0.42 -0.094,-0.908 -0.32,-1.265 -0.043,-2.318 -0.17,-4.542 -0.196,-6.804 0.044,-2.235 -0.058,-4.424 0.063,-6.693 0.184,-0.533 0.18,-0.574 0.104,-1.155 0.03,0.022 0.036,0.06 0.063,0.02 -0.149,-0.03 -0.014,-0.412 -0.158,-0.469 0.028,-0.838 -0.013,-1.61 -0.014,-2.475 0.016,0.136 0.14,0.206 0.13,0.043 l -0.096,-0.17 0.042,-0.028 c -0.021,-0.11 -0.097,-0.231 -0.146,-0.117 -0.017,-0.271 -0.026,-0.54 -0.03,-0.813 0.014,-0.206 0.029,-0.415 0.066,-0.619 0.06,-0.199 0.114,-0.403 0.205,-0.588 0.359,-0.752 1.047,-1.3 1.812,-1.508 0.191,-0.058 0.385,-0.095 0.583,-0.099 l 0.292,-0.013 0.203,0.01 0.8,0.037 c 0.533,0.021 1.065,0.034 1.598,0.024 0.505,0.063 1.222,0.004 1.771,-0.026 1.625,0.202 3.089,0.364 4.741,0.223 0.018,-0.006 -0.198,0.384 -0.881,0.475 z"
               id="path282"
               inkscape:connector-curvature="0"
               style="fill:#ffffff" />
            <path
               d="m 127.469,50.308 c 0.047,0.092 0.222,0.189 0.039,0.24 0.005,-0.074 -0.076,-0.181 -0.039,-0.24 z"
               id="path284"
               inkscape:connector-curvature="0"
               style="fill:#ffffff" />
            <path
               d="m 128.344,54.925 c 0.021,0.006 -0.031,0.073 -0.044,0.087 -0.006,-0.062 -0.069,-0.119 -0.03,-0.17 0.006,0.063 0.041,0.055 0.074,0.083 z"
               id="path286"
               inkscape:connector-curvature="0"
               style="fill:#ffffff" />
            <path
               d="m 128.299,56.215 c -0.067,-0.02 -0.121,-0.296 -0.13,-0.459 z"
               id="path288"
               inkscape:connector-curvature="0"
               style="fill:#ffffff" />
            <path
               d="m 128.022,57.417 c -0.058,0.104 -0.089,0.076 -0.087,-0.064 0.035,-0.01 0.054,0.035 0.087,0.064 z"
               id="path290"
               inkscape:connector-curvature="0"
               style="fill:#ffffff" />
            <path
               d="m 128.175,57.501 c 0.003,0.102 -0.037,0.15 -0.075,0.199 0.055,-0.003 -0.038,-0.231 0.075,-0.199 z"
               id="path292"
               inkscape:connector-curvature="0"
               style="fill:#ffffff" />
            <path
               d="m 127.978,60.113 c 0.006,0.062 0.061,0.198 -0.015,0.255 0.055,-0.064 -0.083,-0.305 0.015,-0.255 z"
               id="path294"
               inkscape:connector-curvature="0"
               style="fill:#ffffff" />
            <path
               d="m 128.08,61.325 c -0.005,0.039 -0.017,0.054 10e-4,0.1 -0.031,0.072 -0.079,-0.004 -0.085,-0.065 z"
               id="path296"
               inkscape:connector-curvature="0"
               style="fill:#ffffff" />
            <polygon
               points="120.692,75.486 120.58,75.454 120.712,75.418 "
               id="polygon298"
               style="fill:#ffffff" />
            <path
               d="m 116.36,70.174 c -0.042,-0.131 0.062,-0.092 0.073,-0.113 0.006,0.119 -0.083,-0.042 -0.073,0.113 z"
               id="path300"
               inkscape:connector-curvature="0"
               style="fill:#ffffff" />
            <polygon
               points="115.888,64.985 116.023,64.958 116.026,64.998 "
               id="polygon302"
               style="fill:#ffffff" />
          </g>
        </g>
      </g>
    </g>
  </g>
</svg>
